<svg width="18" height="19" viewBox="0 0 18 19" fill="none" xmlns="http://www.w3.org/2000/svg">
<path d="M5.4375 5.75C5.4375 5.60082 5.49676 5.45774 5.60225 5.35225C5.70774 5.24676 5.85082 5.1875 6 5.1875H12C12.1492 5.1875 12.2923 5.24676 12.3977 5.35225C12.5032 5.45774 12.5625 5.60082 12.5625 5.75C12.5625 5.89918 12.5032 6.04226 12.3977 6.14775C12.2923 6.25324 12.1492 6.3125 12 6.3125H6C5.85082 6.3125 5.70774 6.25324 5.60225 6.14775C5.49676 6.04226 5.4375 5.89918 5.4375 5.75ZM6 7.8125C5.85082 7.8125 5.70774 7.87176 5.60225 7.97725C5.49676 8.08274 5.4375 8.22582 5.4375 8.375C5.4375 8.52418 5.49676 8.66726 5.60225 8.77275C5.70774 8.87824 5.85082 8.9375 6 8.9375H9.75C9.89918 8.9375 10.0423 8.87824 10.1477 8.77275C10.2532 8.66726 10.3125 8.52418 10.3125 8.375C10.3125 8.22582 10.2532 8.08274 10.1477 7.97725C10.0423 7.87176 9.89918 7.8125 9.75 7.8125H6Z" fill="#F1F4F5"/>
<path fill-rule="evenodd" clip-rule="evenodd" d="M7.45875 1.4375C6.4335 1.4375 5.60625 1.4375 4.956 1.52525C4.281 1.61525 3.7125 1.81025 3.261 2.261C2.8095 2.7125 2.616 3.281 2.52525 3.956C2.4375 4.60625 2.4375 5.4335 2.4375 6.45875V12.5412C2.4375 13.5665 2.4375 14.3937 2.52525 15.044C2.61525 15.719 2.81025 16.2875 3.261 16.739C3.7125 17.1905 4.281 17.384 4.956 17.4755C5.60625 17.5625 6.4335 17.5625 7.45875 17.5625H10.5413C11.5665 17.5625 12.3938 17.5625 13.044 17.4755C13.719 17.384 14.2875 17.1905 14.739 16.739C15.1905 16.2875 15.384 15.719 15.4755 15.044C15.5625 14.3937 15.5625 13.5665 15.5625 12.5412V6.45875C15.5625 5.4335 15.5625 4.60625 15.4755 3.956C15.384 3.281 15.1905 2.7125 14.739 2.261C14.2875 1.8095 13.719 1.616 13.044 1.52525C12.3938 1.4375 11.5665 1.4375 10.5413 1.4375H7.45875ZM4.0575 3.05675C4.26525 2.849 4.55625 2.714 5.1075 2.63975C5.673 2.564 6.4245 2.5625 7.50075 2.5625H10.5008C11.577 2.5625 12.3278 2.564 12.8948 2.63975C13.4453 2.714 13.7362 2.84975 13.944 3.05675C14.1517 3.2645 14.2868 3.5555 14.361 4.10675C14.4368 4.67225 14.4382 5.42375 14.4382 6.5V11.9375H5.8365C5.223 11.9375 4.8045 11.9375 4.44525 12.0335C4.1296 12.1188 3.83099 12.2579 3.5625 12.4445V6.5C3.5625 5.42375 3.564 4.67225 3.63975 4.106C3.714 3.5555 3.8505 3.2645 4.0575 3.05675ZM3.58275 14.1867C3.594 14.4522 3.612 14.6855 3.63975 14.894C3.714 15.4445 3.84975 15.7355 4.05675 15.9432C4.2645 16.151 4.5555 16.286 5.10675 16.3602C5.67225 16.436 6.42375 16.4375 7.5 16.4375H10.5C11.5762 16.4375 12.327 16.436 12.894 16.3602C13.4445 16.286 13.7355 16.1502 13.9432 15.9432C14.151 15.7355 14.286 15.4445 14.3602 14.8932C14.4225 14.432 14.4345 13.847 14.4368 13.0625H5.9235C5.19 13.0625 4.9335 13.067 4.73625 13.1202C4.47191 13.1911 4.22878 13.3253 4.02782 13.5111C3.82687 13.6969 3.67412 13.9288 3.58275 14.1867Z" fill="#F1F4F5"/>
</svg>
