<svg width="14" height="15" viewBox="0 0 14 15" fill="none" xmlns="http://www.w3.org/2000/svg">
<path fill-rule="evenodd" clip-rule="evenodd" d="M0.25 0.75V11.25H8.64512V10.5H1V1.5H11.125V2.295H11.875V0.75H0.25ZM11.875 4.5C11.875 4.69891 11.796 4.88968 11.6553 5.03033C11.5147 5.17098 11.3239 5.25 11.125 5.25C10.9261 5.25 10.7353 5.17098 10.5947 5.03033C10.454 4.88968 10.375 4.69891 10.375 4.5C10.375 4.30109 10.454 4.11032 10.5947 3.96967C10.7353 3.82902 10.9261 3.75 11.125 3.75C11.3239 3.75 11.5147 3.82902 11.6553 3.96967C11.796 4.11032 11.875 4.30109 11.875 4.5ZM12.625 4.5C12.625 4.89782 12.467 5.27936 12.1857 5.56066C11.9044 5.84196 11.5228 6 11.125 6C10.7272 6 10.3456 5.84196 10.0643 5.56066C9.78304 5.27936 9.625 4.89782 9.625 4.5C9.625 4.10218 9.78304 3.72064 10.0643 3.43934C10.3456 3.15804 10.7272 3 11.125 3C11.5228 3 11.9044 3.15804 12.1857 3.43934C12.467 3.72064 12.625 4.10218 12.625 4.5Z" fill="#F1F4F5"/>
<path fill-rule="evenodd" clip-rule="evenodd" d="M9.51062 6.68625C9.71976 6.4866 9.99774 6.37514 10.2869 6.375H11.8176C12.3666 6.375 12.8778 6.56175 13.2715 6.93375C13.6503 7.2915 13.8475 7.75013 13.9281 8.18475C14.0549 8.868 13.9236 9.61462 13.6007 10.2765V13.3125C13.6008 13.5478 13.5123 13.7744 13.353 13.9475C13.1936 14.1206 12.975 14.2274 12.7406 14.2468C12.5061 14.2662 12.2729 14.1968 12.0873 14.0523C11.9017 13.9077 11.7772 13.6987 11.7385 13.4666L11.5382 12.2651L11.338 13.4666C11.2993 13.6987 11.1748 13.9077 10.9892 14.0523C10.8036 14.1968 10.5704 14.2662 10.3359 14.2468C10.1015 14.2274 9.88287 14.1206 9.72353 13.9475C9.56418 13.7744 9.47574 13.5478 9.47575 13.3125V9.78488C9.30473 9.88362 9.11073 9.93562 8.91325 9.93563H7C6.70163 9.93563 6.41548 9.8171 6.2045 9.60612C5.99353 9.39514 5.875 9.10899 5.875 8.81063C5.875 8.51226 5.99353 8.22611 6.2045 8.01513C6.41548 7.80415 6.70163 7.68563 7 7.68563H8.4625L9.51062 6.68625ZM10.2257 11.0531V13.3125C10.2259 13.3595 10.2436 13.4047 10.2755 13.4392C10.3074 13.4737 10.351 13.495 10.3978 13.4989C10.4446 13.5027 10.4912 13.4889 10.5283 13.4601C10.5654 13.4312 10.5903 13.3896 10.5981 13.3433L10.9892 10.9973C11.0038 10.9097 11.049 10.8301 11.1167 10.7727C11.1844 10.7153 11.2702 10.6838 11.359 10.6838H11.7175C11.8063 10.6838 11.8921 10.7153 11.9598 10.7727C12.0275 10.8301 12.0727 10.9097 12.0872 10.9973L12.4784 13.3433C12.4862 13.3896 12.5111 13.4312 12.5482 13.4601C12.5853 13.4889 12.6319 13.5027 12.6787 13.4989C12.7255 13.495 12.7691 13.4737 12.801 13.4392C12.8329 13.4047 12.8506 13.3595 12.8507 13.3125V10.1876C12.8507 10.1276 12.8651 10.0684 12.8927 10.0151C13.1822 9.456 13.2876 8.84362 13.1909 8.32162C13.132 8.00437 12.9944 7.70363 12.7566 7.479C12.514 7.24988 12.1922 7.125 11.8176 7.125H10.2873C10.1909 7.125 10.0979 7.16212 10.0281 7.2285L8.87162 8.33175C8.80193 8.39834 8.70927 8.43554 8.61287 8.43563H7C6.90054 8.43563 6.80516 8.47513 6.73483 8.54546C6.66451 8.61579 6.625 8.71117 6.625 8.81063C6.625 8.91008 6.66451 9.00546 6.73483 9.07579C6.80516 9.14612 6.90054 9.18563 7 9.18563H8.91325C9.00964 9.18554 9.10231 9.14834 9.172 9.08175L9.592 8.68125C9.64513 8.6306 9.71197 8.59665 9.78422 8.58363C9.85646 8.5706 9.93094 8.57907 9.99842 8.60798C10.0659 8.63689 10.1234 8.68496 10.1638 8.74625C10.2042 8.80754 10.2258 8.87934 10.2257 8.95275V11.0531Z" fill="#F1F4F5"/>
</svg>
