<svg width="18" height="19" viewBox="0 0 18 19" fill="none" xmlns="http://www.w3.org/2000/svg">
<path d="M10 4.26168C10 4.5269 9.89464 4.78125 9.70711 4.96879C9.51957 5.15632 9.26522 5.26168 9 5.26168C8.73478 5.26168 8.48043 5.15632 8.29289 4.96879C8.10536 4.78125 8 4.5269 8 4.26168C8 3.99646 8.10536 3.74211 8.29289 3.55457C8.48043 3.36704 8.73478 3.26168 9 3.26168C9.26522 3.26168 9.51957 3.36704 9.70711 3.55457C9.89464 3.74211 10 3.99646 10 4.26168ZM10.032 0.336679C9.73238 0.1179 9.37099 0 9 0C8.62901 0 8.26762 0.1179 7.968 0.336679L0.547 5.75168C-0.431 6.46468 0.074 8.01168 1.283 8.01168H1.5V13.8117C1.04844 14.0421 0.669369 14.3929 0.404659 14.8252C0.139949 15.2576 -9.40131e-05 15.7547 4.73508e-08 16.2617V17.7617C4.73508e-08 18.1747 0.336 18.5117 0.75 18.5117H17.25C17.4489 18.5117 17.6397 18.4327 17.7803 18.292C17.921 18.1514 18 17.9606 18 17.7617V16.2617C18.0001 15.7547 17.8601 15.2576 17.5953 14.8252C17.3306 14.3929 16.9516 14.0421 16.5 13.8117V8.01168H16.717C17.927 8.01168 18.43 6.46468 17.453 5.75168L10.032 0.336679ZM8.852 1.54768C8.89482 1.51639 8.94647 1.49953 8.9995 1.49953C9.05253 1.49953 9.10418 1.51639 9.147 1.54768L15.95 6.51168H2.05L8.852 1.54768ZM15 8.01168V13.5117H13C13 13.5117 10.9814 8.7457 13 8.01168C13.734 7.74476 15 8.01168 15 8.01168ZM11.5 8.01168V13.5117H9.75V8.01168H11.5ZM8.25 8.01168V13.5117H6.5V8.01168H8.25ZM2.75 15.0117H15.25C15.94 15.0117 16.5 15.5717 16.5 16.2617V17.0117H1.5V16.2617C1.5 15.5717 2.06 15.0117 2.75 15.0117ZM3 13.5117V8.01168H5V13.5117H3Z" fill="#F1F4F5"/>
</svg>
