<svg width="21" height="21" viewBox="0 0 21 21" fill="none" xmlns="http://www.w3.org/2000/svg">
<path d="M10.5 12.6293L3.04753 20.0817C2.76869 20.3606 2.41381 20.5 1.98289 20.5C1.55196 20.5 1.19708 20.3606 0.91825 20.0817C0.639416 19.8029 0.5 19.448 0.5 19.0171C0.5 18.5862 0.639416 18.2313 0.91825 17.9525L8.37072 10.5L0.91825 3.04753C0.639416 2.76869 0.5 2.41381 0.5 1.98289C0.5 1.55196 0.639416 1.19708 0.91825 0.91825C1.19708 0.639416 1.55196 0.5 1.98289 0.5C2.41381 0.5 2.76869 0.639416 3.04753 0.91825L10.5 8.37072L17.9525 0.91825C18.2313 0.639416 18.5862 0.5 19.0171 0.5C19.448 0.5 19.8029 0.639416 20.0817 0.91825C20.3606 1.19708 20.5 1.55196 20.5 1.98289C20.5 2.41381 20.3606 2.76869 20.0817 3.04753L12.6293 10.5L20.0817 17.9525C20.3606 18.2313 20.5 18.5862 20.5 19.0171C20.5 19.448 20.3606 19.8029 20.0817 20.0817C19.8029 20.3606 19.448 20.5 19.0171 20.5C18.5862 20.5 18.2313 20.3606 17.9525 20.0817L10.5 12.6293Z" fill="white"/>
</svg>
