<svg width="25" height="25" viewBox="0 0 25 25" fill="none" xmlns="http://www.w3.org/2000/svg">
<path d="M10.167 5.03223H14.167C14.167 4.50179 13.9563 3.99309 13.5812 3.61801C13.2061 3.24294 12.6974 3.03223 12.167 3.03223C11.6366 3.03223 11.1279 3.24294 10.7528 3.61801C10.3777 3.99309 10.167 4.50179 10.167 5.03223ZM8.66699 5.03223C8.66699 4.5726 8.75752 4.11747 8.93341 3.69283C9.1093 3.2682 9.36711 2.88236 9.69212 2.55735C10.0171 2.23235 10.403 1.97454 10.8276 1.79865C11.2522 1.62276 11.7074 1.53223 12.167 1.53223C12.6266 1.53223 13.0817 1.62276 13.5064 1.79865C13.931 1.97454 14.3169 2.23235 14.6419 2.55735C14.9669 2.88236 15.2247 3.2682 15.4006 3.69283C15.5765 4.11747 15.667 4.5726 15.667 5.03223H21.417C21.6159 5.03223 21.8067 5.11124 21.9473 5.2519C22.088 5.39255 22.167 5.58331 22.167 5.78223C22.167 5.98114 22.088 6.1719 21.9473 6.31256C21.8067 6.45321 21.6159 6.53223 21.417 6.53223H20.097L18.927 18.6432C18.8372 19.5712 18.405 20.4325 17.7147 21.0591C17.0243 21.6856 16.1253 22.0326 15.193 22.0322H9.14099C8.20886 22.0323 7.31009 21.6853 6.61994 21.0587C5.92979 20.4322 5.49773 19.571 5.40799 18.6432L4.23699 6.53223H2.91699C2.71808 6.53223 2.52731 6.45321 2.38666 6.31256C2.24601 6.1719 2.16699 5.98114 2.16699 5.78223C2.16699 5.58331 2.24601 5.39255 2.38666 5.2519C2.52731 5.11124 2.71808 5.03223 2.91699 5.03223H8.66699ZM10.667 9.78223C10.667 9.58331 10.588 9.39255 10.4473 9.2519C10.3067 9.11124 10.1159 9.03223 9.91699 9.03223C9.71808 9.03223 9.52731 9.11124 9.38666 9.2519C9.24601 9.39255 9.16699 9.58331 9.16699 9.78223V17.2822C9.16699 17.4811 9.24601 17.6719 9.38666 17.8126C9.52731 17.9532 9.71808 18.0322 9.91699 18.0322C10.1159 18.0322 10.3067 17.9532 10.4473 17.8126C10.588 17.6719 10.667 17.4811 10.667 17.2822V9.78223ZM14.417 9.03223C14.6159 9.03223 14.8067 9.11124 14.9473 9.2519C15.088 9.39255 15.167 9.58331 15.167 9.78223V17.2822C15.167 17.4811 15.088 17.6719 14.9473 17.8126C14.8067 17.9532 14.6159 18.0322 14.417 18.0322C14.2181 18.0322 14.0273 17.9532 13.8867 17.8126C13.746 17.6719 13.667 17.4811 13.667 17.2822V9.78223C13.667 9.58331 13.746 9.39255 13.8867 9.2519C14.0273 9.11124 14.2181 9.03223 14.417 9.03223ZM6.90099 18.4992C6.95493 19.0559 7.21424 19.5725 7.62836 19.9483C8.04248 20.3242 8.58174 20.5323 9.14099 20.5322H15.193C15.7522 20.5323 16.2915 20.3242 16.7056 19.9483C17.1197 19.5725 17.3791 19.0559 17.433 18.4992L18.591 6.53223H5.74299L6.90099 18.4992Z" fill="#EB5E5E"/>
</svg>
