<svg width="28" height="28" viewBox="0 0 28 28" fill="none" xmlns="http://www.w3.org/2000/svg">
<path d="M19.223 14.6159C21.616 14.6159 23.566 12.4844 23.566 9.8909C23.566 7.3269 21.626 5.2959 19.223 5.2959C16.84 5.2959 14.8795 7.3569 14.8795 9.9109C14.8895 12.4944 16.84 14.6159 19.223 14.6159ZM7.641 14.8369C9.712 14.8369 11.411 12.9769 11.411 10.6949C11.411 8.4629 9.732 6.6634 7.641 6.6634C5.57 6.6634 3.861 8.4934 3.871 10.7149C3.881 12.9874 5.57 14.8369 7.641 14.8369ZM19.223 13.0979C17.755 13.0979 16.498 11.6904 16.498 9.9109C16.498 8.1609 17.735 6.8144 19.223 6.8144C20.721 6.8144 21.9475 8.1414 21.9475 9.8904C21.9475 11.6704 20.711 13.0979 19.223 13.0979ZM7.641 13.3389C6.4145 13.3389 5.369 12.1629 5.369 10.7149C5.369 9.2974 6.404 8.1614 7.641 8.1614C8.9075 8.1614 9.923 9.2774 9.923 10.6949C9.923 12.1629 8.8775 13.3389 7.641 13.3389ZM2.051 24.0564H9.9435C9.4605 23.7849 9.0885 23.1814 9.159 22.5684H1.8C1.599 22.5684 1.4985 22.4884 1.4985 22.2969C1.4985 19.8039 4.3435 17.4714 7.6315 17.4714C8.898 17.4714 10.034 17.7729 11.0095 18.3459C11.3331 17.9362 11.716 17.5771 12.1455 17.2804C10.8485 16.4254 9.2905 15.9834 7.6315 15.9834C3.4185 15.9834 0 19.0394 0 22.3874C0 23.5034 0.6835 24.0564 2.051 24.0564ZM12.909 24.0564H25.537C27.2055 24.0564 28 23.5539 28 22.4479C28 19.8139 24.672 16.0029 19.223 16.0029C13.7635 16.0029 10.436 19.8139 10.436 22.4479C10.436 23.5539 11.23 24.0564 12.909 24.0564ZM12.4265 22.5384C12.165 22.5384 12.0545 22.4684 12.0545 22.2569C12.0545 20.6079 14.608 17.5219 19.223 17.5219C23.828 17.5219 26.381 20.6079 26.381 22.2569C26.381 22.4679 26.281 22.5384 26.019 22.5384H12.4265Z" fill="#F1F4F5"/>
</svg>
