<svg width="25" height="25" viewBox="0 0 25 25" fill="none" xmlns="http://www.w3.org/2000/svg">
<path d="M16.642 5.4403L18.759 7.5573M18.003 3.5753L12.276 9.3023C11.9792 9.59714 11.7772 9.97391 11.696 10.3843L11.167 13.0323L13.815 12.5023C14.225 12.4203 14.601 12.2193 14.897 11.9233L20.624 6.1963C20.7961 6.0242 20.9326 5.81989 21.0257 5.59504C21.1189 5.37018 21.1668 5.12918 21.1668 4.8858C21.1668 4.64242 21.1189 4.40142 21.0257 4.17656C20.9326 3.9517 20.7961 3.74739 20.624 3.5753C20.4519 3.4032 20.2476 3.26669 20.0227 3.17355C19.7979 3.08041 19.5569 3.03247 19.3135 3.03247C19.0701 3.03247 18.8291 3.08041 18.6043 3.17355C18.3794 3.26669 18.1751 3.4032 18.003 3.5753Z" stroke="#29488F" stroke-width="2" stroke-linecap="round" stroke-linejoin="round"/>
<path d="M19.167 15.0322V18.0322C19.167 18.5627 18.9563 19.0714 18.5812 19.4464C18.2061 19.8215 17.6974 20.0322 17.167 20.0322H6.16699C5.63656 20.0322 5.12785 19.8215 4.75278 19.4464C4.37771 19.0714 4.16699 18.5627 4.16699 18.0322V7.03223C4.16699 6.50179 4.37771 5.99309 4.75278 5.61801C5.12785 5.24294 5.63656 5.03223 6.16699 5.03223H9.16699" stroke="#29488F" stroke-width="2" stroke-linecap="round" stroke-linejoin="round"/>
</svg>
