<svg width="20" height="21" viewBox="0 0 20 21" fill="none" xmlns="http://www.w3.org/2000/svg">
<path d="M18 14.5117V2.51172H6V14.5117M20 14.5117C20 15.6117 19.1 16.5117 18 16.5117C18 16.5117 7.1 16.5117 6 16.5117C4.9 16.5117 4 15.6117 4 14.5117V2.51172C4 1.41172 4.9 0.511719 6 0.511719H18C19.1 0.511719 20 1.41172 20 2.51172M14 18.5117V20.5117H2C0.9 20.5117 0 19.6117 0 18.5117V5.51172H2V18.5117M14 9.51172H16V12.5117H14M11 4.51172H13V12.5117H11M8 6.51172H10V12.5117H8V6.51172Z" fill="#F1F4F5"/>
</svg>
