<svg width="19" height="18" viewBox="0 0 19 18" fill="none" xmlns="http://www.w3.org/2000/svg">
<path d="M7.5 4.5C7.5 4.36739 7.55268 4.24021 7.64645 4.14645C7.74021 4.05268 7.86739 4 8 4H12C12.1326 4 12.2598 4.05268 12.3536 4.14645C12.4473 4.24021 12.5 4.36739 12.5 4.5C12.5 4.63261 12.4473 4.75979 12.3536 4.85355C12.2598 4.94732 12.1326 5 12 5H8C7.86739 5 7.74021 4.94732 7.64645 4.85355C7.55268 4.75979 7.5 4.63261 7.5 4.5ZM8 6C7.86739 6 7.74021 6.05268 7.64645 6.14645C7.55268 6.24021 7.5 6.36739 7.5 6.5C7.5 6.63261 7.55268 6.75979 7.64645 6.85355C7.74021 6.94732 7.86739 7 8 7H12C12.1326 7 12.2598 6.94732 12.3536 6.85355C12.4473 6.75979 12.5 6.63261 12.5 6.5C12.5 6.36739 12.4473 6.24021 12.3536 6.14645C12.2598 6.05268 12.1326 6 12 6H8ZM7.5 11C7.5 10.8674 7.55268 10.7402 7.64645 10.6464C7.74021 10.5527 7.86739 10.5 8 10.5H12C12.1326 10.5 12.2598 10.5527 12.3536 10.6464C12.4473 10.7402 12.5 10.8674 12.5 11C12.5 11.1326 12.4473 11.2598 12.3536 11.3536C12.2598 11.4473 12.1326 11.5 12 11.5H8C7.86739 11.5 7.74021 11.4473 7.64645 11.3536C7.55268 11.2598 7.5 11.1326 7.5 11ZM8 12.5C7.86739 12.5 7.74021 12.5527 7.64645 12.6464C7.55268 12.7402 7.5 12.8674 7.5 13C7.5 13.1326 7.55268 13.2598 7.64645 13.3536C7.74021 13.4473 7.86739 13.5 8 13.5H12C12.1326 13.5 12.2598 13.4473 12.3536 13.3536C12.4473 13.2598 12.5 13.1326 12.5 13C12.5 12.8674 12.4473 12.7402 12.3536 12.6464C12.2598 12.5527 12.1326 12.5 12 12.5H8Z" fill="#F1F4F5"/>
<path fill-rule="evenodd" clip-rule="evenodd" d="M2.5 10.5C2.5 10.3674 2.55268 10.2402 2.64645 10.1464C2.74021 10.0527 2.86739 10 3 10H5.5C5.63261 10 5.75979 10.0527 5.85355 10.1464C5.94732 10.2402 6 10.3674 6 10.5V13C6 13.1326 5.94732 13.2598 5.85355 13.3536C5.75979 13.4473 5.63261 13.5 5.5 13.5H3C2.86739 13.5 2.74021 13.4473 2.64645 13.3536C2.55268 13.2598 2.5 13.1326 2.5 13V10.5ZM3.5 11V12.5H5V11H3.5Z" fill="#F1F4F5"/>
<path d="M6.35346 4.85346C6.44454 4.75916 6.49494 4.63286 6.4938 4.50176C6.49266 4.37066 6.44007 4.24525 6.34737 4.15255C6.25466 4.05985 6.12926 4.00726 5.99816 4.00612C5.86706 4.00498 5.74076 4.05538 5.64646 4.14646L3.99996 5.79296L3.35346 5.14646C3.25916 5.05538 3.13286 5.00498 3.00176 5.00612C2.87066 5.00726 2.74525 5.05985 2.65255 5.15255C2.55985 5.24525 2.50726 5.37066 2.50612 5.50176C2.50498 5.63286 2.55538 5.75916 2.64646 5.85346L3.99996 7.20696L6.35346 4.85346Z" fill="#F1F4F5"/>
<path fill-rule="evenodd" clip-rule="evenodd" d="M2.5 0C1.96957 0 1.46086 0.210714 1.08579 0.585786C0.710714 0.960859 0.5 1.46957 0.5 2V16C0.5 16.5304 0.710714 17.0391 1.08579 17.4142C1.46086 17.7893 1.96957 18 2.5 18H12.5C13.0304 18 13.5391 17.7893 13.9142 17.4142C14.2893 17.0391 14.5 16.5304 14.5 16V2C14.5 1.46957 14.2893 0.960859 13.9142 0.585786C13.5391 0.210714 13.0304 0 12.5 0H2.5ZM1.5 2C1.5 1.73478 1.60536 1.48043 1.79289 1.29289C1.98043 1.10536 2.23478 1 2.5 1H12.5C12.7652 1 13.0196 1.10536 13.2071 1.29289C13.3946 1.48043 13.5 1.73478 13.5 2V16C13.5 16.2652 13.3946 16.5196 13.2071 16.7071C13.0196 16.8946 12.7652 17 12.5 17H2.5C2.23478 17 1.98043 16.8946 1.79289 16.7071C1.60536 16.5196 1.5 16.2652 1.5 16V2ZM15.5 5C15.5 4.60218 15.658 4.22064 15.9393 3.93934C16.2206 3.65804 16.6022 3.5 17 3.5C17.3978 3.5 17.7794 3.65804 18.0607 3.93934C18.342 4.22064 18.5 4.60218 18.5 5V15.1515L17 17.4015L15.5 15.1515V5ZM17 4.5C16.8674 4.5 16.7402 4.55268 16.6464 4.64645C16.5527 4.74021 16.5 4.86739 16.5 5V6H17.5V5C17.5 4.86739 17.4473 4.74021 17.3536 4.64645C17.2598 4.55268 17.1326 4.5 17 4.5ZM17 15.5985L16.5 14.8485V7H17.5V14.8485L17 15.5985Z" fill="#F1F4F5"/>
</svg>
