<svg width="16" height="16" viewBox="0 0 16 16" fill="none" xmlns="http://www.w3.org/2000/svg">
<path d="M6.875 5.1875C6.875 5.10462 6.90792 5.02513 6.96653 4.96653C7.02513 4.90792 7.10462 4.875 7.1875 4.875H9.6875C9.77038 4.875 9.84987 4.90792 9.90847 4.96653C9.96708 5.02513 10 5.10462 10 5.1875C10 5.27038 9.96708 5.34987 9.90847 5.40847C9.84987 5.46708 9.77038 5.5 9.6875 5.5H7.1875C7.10462 5.5 7.02513 5.46708 6.96653 5.40847C6.90792 5.34987 6.875 5.27038 6.875 5.1875ZM7.1875 6.125C7.10462 6.125 7.02513 6.15792 6.96653 6.21653C6.90792 6.27513 6.875 6.35462 6.875 6.4375C6.875 6.52038 6.90792 6.59987 6.96653 6.65847C7.02513 6.71708 7.10462 6.75 7.1875 6.75H9.6875C9.77038 6.75 9.84987 6.71708 9.90847 6.65847C9.96708 6.59987 10 6.52038 10 6.4375C10 6.35462 9.96708 6.27513 9.90847 6.21653C9.84987 6.15792 9.77038 6.125 9.6875 6.125H7.1875ZM6.875 9.25C6.875 9.16712 6.90792 9.08763 6.96653 9.02903C7.02513 8.97042 7.10462 8.9375 7.1875 8.9375H9.6875C9.77038 8.9375 9.84987 8.97042 9.90847 9.02903C9.96708 9.08763 10 9.16712 10 9.25C10 9.33288 9.96708 9.41237 9.90847 9.47097C9.84987 9.52958 9.77038 9.5625 9.6875 9.5625H7.1875C7.10462 9.5625 7.02513 9.52958 6.96653 9.47097C6.90792 9.41237 6.875 9.33288 6.875 9.25ZM7.1875 10.1875C7.10462 10.1875 7.02513 10.2204 6.96653 10.279C6.90792 10.3376 6.875 10.4171 6.875 10.5C6.875 10.5829 6.90792 10.6624 6.96653 10.721C7.02513 10.7796 7.10462 10.8125 7.1875 10.8125H9.6875C9.77038 10.8125 9.84987 10.7796 9.90847 10.721C9.96708 10.6624 10 10.5829 10 10.5C10 10.4171 9.96708 10.3376 9.90847 10.279C9.84987 10.2204 9.77038 10.1875 9.6875 10.1875H7.1875Z" fill="#1D2D44"/>
<path fill-rule="evenodd" clip-rule="evenodd" d="M3.75 8.9375C3.75 8.85462 3.78292 8.77513 3.84153 8.71653C3.90013 8.65792 3.97962 8.625 4.0625 8.625H5.625C5.70788 8.625 5.78737 8.65792 5.84597 8.71653C5.90458 8.77513 5.9375 8.85462 5.9375 8.9375V10.5C5.9375 10.5829 5.90458 10.6624 5.84597 10.721C5.78737 10.7796 5.70788 10.8125 5.625 10.8125H4.0625C3.97962 10.8125 3.90013 10.7796 3.84153 10.721C3.78292 10.6624 3.75 10.5829 3.75 10.5V8.9375ZM4.375 9.25V10.1875H5.3125V9.25H4.375Z" fill="#1D2D44"/>
<path d="M6.1585 5.4085C6.21543 5.34957 6.24693 5.27063 6.24621 5.18869C6.2455 5.10675 6.21264 5.02838 6.1547 4.97044C6.09676 4.9125 6.01838 4.87963 5.93644 4.87892C5.8545 4.87821 5.77557 4.9097 5.71663 4.96663L4.68757 5.99569L4.2835 5.59163C4.22457 5.5347 4.14563 5.50321 4.06369 5.50392C3.98175 5.50463 3.90338 5.5375 3.84544 5.59544C3.7875 5.65338 3.75463 5.73175 3.75392 5.81369C3.75321 5.89563 3.7847 5.97457 3.84163 6.0335L4.68757 6.87944L6.1585 5.4085Z" fill="#1D2D44"/>
<path fill-rule="evenodd" clip-rule="evenodd" d="M3.75 2.375C3.41848 2.375 3.10054 2.5067 2.86612 2.74112C2.6317 2.97554 2.5 3.29348 2.5 3.625V12.375C2.5 12.7065 2.6317 13.0245 2.86612 13.2589C3.10054 13.4933 3.41848 13.625 3.75 13.625H10C10.3315 13.625 10.6495 13.4933 10.8839 13.2589C11.1183 13.0245 11.25 12.7065 11.25 12.375V3.625C11.25 3.29348 11.1183 2.97554 10.8839 2.74112C10.6495 2.5067 10.3315 2.375 10 2.375H3.75ZM3.125 3.625C3.125 3.45924 3.19085 3.30027 3.30806 3.18306C3.42527 3.06585 3.58424 3 3.75 3H10C10.1658 3 10.3247 3.06585 10.4419 3.18306C10.5592 3.30027 10.625 3.45924 10.625 3.625V12.375C10.625 12.5408 10.5592 12.6997 10.4419 12.8169C10.3247 12.9342 10.1658 13 10 13H3.75C3.58424 13 3.42527 12.9342 3.30806 12.8169C3.19085 12.6997 3.125 12.5408 3.125 12.375V3.625ZM11.875 5.5C11.875 5.25136 11.9738 5.0129 12.1496 4.83709C12.3254 4.66127 12.5639 4.5625 12.8125 4.5625C13.0611 4.5625 13.2996 4.66127 13.4754 4.83709C13.6512 5.0129 13.75 5.25136 13.75 5.5V11.8447L12.8125 13.2509L11.875 11.8447V5.5ZM12.8125 5.1875C12.7296 5.1875 12.6501 5.22042 12.5915 5.27903C12.5329 5.33763 12.5 5.41712 12.5 5.5V6.125H13.125V5.5C13.125 5.41712 13.0921 5.33763 13.0335 5.27903C12.9749 5.22042 12.8954 5.1875 12.8125 5.1875ZM12.8125 12.1241L12.5 11.6553V6.75H13.125V11.6553L12.8125 12.1241Z" fill="#1D2D44"/>
</svg>
