<svg width="28" height="29" viewBox="0 0 28 29" fill="none" xmlns="http://www.w3.org/2000/svg">
<path d="M1.90983 1.92163C0.854 1.92163 0 2.77563 0 3.8303V24.1933C0 25.248 0.854 26.102 1.90983 26.102H26.0902C27.146 26.102 28 25.248 28 24.1933V3.8303C28 2.77563 27.146 1.92163 26.0902 1.92163H1.90983ZM2.54567 4.46613H25.4543V23.5575H22.274V22.2858H16.5457V23.5575H2.54567V4.46613ZM14 9.55746C13.4936 9.55746 13.008 9.75862 12.65 10.1167C12.2919 10.4747 12.0907 10.9603 12.0907 11.4667C12.0907 11.9731 12.2919 12.4587 12.65 12.8168C13.008 13.1748 13.4936 13.376 14 13.376C14.5064 13.376 14.992 13.1748 15.35 12.8168C15.7081 12.4587 15.9093 11.9731 15.9093 11.4667C15.9093 10.9603 15.7081 10.4747 15.35 10.1167C14.992 9.75862 14.5064 9.55746 14 9.55746ZM8.90983 11.7858C8.11883 11.7858 7.476 12.4275 7.476 13.2161C7.48664 13.5889 7.64219 13.9428 7.90959 14.2027C8.177 14.4625 8.5352 14.6079 8.90808 14.6079C9.28097 14.6079 9.63917 14.4625 9.90657 14.2027C10.174 13.9428 10.3295 13.5889 10.3402 13.2161C10.3402 12.4263 9.69967 11.7858 8.90983 11.7858ZM19.0902 11.7858C18.8988 11.7803 18.7083 11.8133 18.5299 11.8828C18.3516 11.9522 18.1889 12.0567 18.0516 12.1901C17.9144 12.3236 17.8052 12.4831 17.7307 12.6595C17.6562 12.8358 17.6178 13.0253 17.6178 13.2167C17.6178 13.4081 17.6562 13.5976 17.7307 13.7739C17.8052 13.9503 17.9144 14.1099 18.0516 14.2433C18.1889 14.3767 18.3516 14.4812 18.5299 14.5507C18.7083 14.6201 18.8988 14.6531 19.0902 14.6476C19.4626 14.637 19.8162 14.4816 20.0759 14.2144C20.3355 13.9472 20.4808 13.5893 20.4808 13.2167C20.4808 12.8441 20.3355 12.4862 20.0759 12.219C19.8162 11.9519 19.4626 11.7964 19.0902 11.7858ZM14 14.6476C12.6245 14.6476 11.1848 15.1155 10.3273 15.8213C9.86854 15.6774 9.39067 15.6034 8.90983 15.602C7.37683 15.602 5.726 16.4128 5.726 17.4208V18.4661H22.274V17.4208C22.274 16.4128 20.6232 15.602 19.0902 15.602C18.6118 15.602 18.1218 15.6813 17.6727 15.8213C16.8152 15.1155 15.3755 14.6476 14 14.6476Z" fill="#F1F4F5"/>
</svg>
