<svg width="22" height="18" viewBox="0 0 22 18" fill="none" xmlns="http://www.w3.org/2000/svg">
<path fill-rule="evenodd" clip-rule="evenodd" d="M7.92974 3.08569C7.56019 3.08569 7.19426 3.15886 6.85284 3.30101C6.51142 3.44315 6.2012 3.65151 5.93988 3.91416C5.67857 4.17682 5.47129 4.48864 5.32987 4.83182C5.18845 5.175 5.11566 5.54281 5.11566 5.91426C5.11566 6.28572 5.18845 6.65353 5.32987 6.99671C5.47129 7.33989 5.67857 7.65171 5.93988 7.91437C6.2012 8.17702 6.51142 8.38537 6.85284 8.52752C7.19426 8.66967 7.56019 8.74284 7.92974 8.74284C8.67608 8.74284 9.39186 8.44483 9.9196 7.91437C10.4473 7.38391 10.7438 6.66445 10.7438 5.91426C10.7438 5.16408 10.4473 4.44462 9.9196 3.91416C9.39186 3.3837 8.67608 3.08569 7.92974 3.08569ZM6.65061 5.91426C6.65061 5.57327 6.78538 5.24625 7.02526 5.00513C7.26514 4.76401 7.5905 4.62855 7.92974 4.62855C8.26899 4.62855 8.59434 4.76401 8.83422 5.00513C9.07411 5.24625 9.20887 5.57327 9.20887 5.91426C9.20887 6.25526 9.07411 6.58228 8.83422 6.8234C8.59434 7.06452 8.26899 7.19998 7.92974 7.19998C7.5905 7.19998 7.26514 7.06452 7.02526 6.8234C6.78538 6.58228 6.65061 6.25526 6.65061 5.91426ZM7.92974 9.25712C6.70587 9.25712 5.56079 9.50398 4.69201 9.94112C3.8703 10.3546 3.06905 11.0684 3.06905 12.0857V12.1505C3.067 12.6751 3.06496 13.5596 3.89793 14.1655C4.28473 14.4463 4.79536 14.6263 5.42776 14.7404C6.06528 14.8556 6.8829 14.9143 7.92974 14.9143C8.97658 14.9143 9.7942 14.8556 10.4317 14.7404C11.0641 14.6263 11.5747 14.4463 11.9616 14.1644C12.7945 13.5586 12.7925 12.6751 12.7904 12.1495V12.0857C12.7904 11.0674 11.9892 10.3546 11.1675 9.94112C10.2987 9.50501 9.15361 9.25712 7.92974 9.25712ZM4.60401 12.0857C4.60401 11.9674 4.71964 11.6527 5.37865 11.3215C5.99263 11.0129 6.89313 10.8 7.92974 10.8C8.96635 10.8 9.86788 11.0129 10.4808 11.3215C11.1398 11.6527 11.2555 11.9674 11.2555 12.0857C11.2555 12.707 11.2156 12.8026 11.061 12.9158C10.9362 13.0063 10.6794 13.1276 10.1605 13.2223C9.64684 13.3148 8.92951 13.3714 7.92974 13.3714C6.92997 13.3714 6.21264 13.3148 5.69894 13.2223C5.18013 13.1276 4.92328 13.0063 4.79843 12.9158C4.64289 12.8026 4.60401 12.707 4.60401 12.0857Z" fill="#F1F4F5"/>
<path d="M18.1628 9.77139C18.3664 9.77139 18.5616 9.69012 18.7055 9.54545C18.8494 9.40078 18.9303 9.20456 18.9303 8.99997C18.9303 8.79537 18.8494 8.59915 18.7055 8.45448C18.5616 8.30981 18.3664 8.22854 18.1628 8.22854H14.0696C13.866 8.22854 13.6708 8.30981 13.5269 8.45448C13.383 8.59915 13.3021 8.79537 13.3021 8.99997C13.3021 9.20456 13.383 9.40078 13.5269 9.54545C13.6708 9.69012 13.866 9.77139 14.0696 9.77139H18.1628ZM18.9303 5.91425C18.9303 6.11885 18.8494 6.31506 18.7055 6.45973C18.5616 6.6044 18.3664 6.68568 18.1628 6.68568H13.0463C12.8427 6.68568 12.6475 6.6044 12.5036 6.45973C12.3597 6.31506 12.2788 6.11885 12.2788 5.91425C12.2788 5.70966 12.3597 5.51344 12.5036 5.36877C12.6475 5.2241 12.8427 5.14282 13.0463 5.14282H18.1628C18.3664 5.14282 18.5616 5.2241 18.7055 5.36877C18.8494 5.51344 18.9303 5.70966 18.9303 5.91425ZM18.1628 12.8571C18.3664 12.8571 18.5616 12.7758 18.7055 12.6312C18.8494 12.4865 18.9303 12.2903 18.9303 12.0857C18.9303 11.8811 18.8494 11.6849 18.7055 11.5402C18.5616 11.3955 18.3664 11.3143 18.1628 11.3143H15.0929C14.8893 11.3143 14.6941 11.3955 14.5502 11.5402C14.4063 11.6849 14.3254 11.8811 14.3254 12.0857C14.3254 12.2903 14.4063 12.4865 14.5502 12.6312C14.6941 12.7758 14.8893 12.8571 15.0929 12.8571H18.1628Z" fill="#F1F4F5"/>
<path fill-rule="evenodd" clip-rule="evenodd" d="M8.89558 0H13.1034C14.9842 0 16.4742 1.19209e-07 17.6397 0.157372C18.839 0.319886 19.8101 0.661371 20.5766 1.43074C21.342 2.20114 21.6818 3.17726 21.8434 4.38274C22 5.55531 22 7.05189 22 8.9424V9.0576C22 10.9481 22 12.4457 21.8434 13.6173C21.6818 14.8227 21.342 15.7989 20.5766 16.5693C19.8101 17.3386 18.839 17.6801 17.6397 17.8426C16.4731 18 14.9842 18 13.1034 18H8.8966C7.01577 18 5.52584 18 4.3603 17.8426C3.16098 17.6801 2.18987 17.3386 1.42341 16.5693C0.657984 15.7989 0.318247 14.8227 0.156565 13.6173C0 12.4447 0 10.9481 0 9.0576V8.9424C0 7.05189 0 5.55429 0.156565 4.38274C0.318247 3.17726 0.657984 2.20114 1.42341 1.43074C2.18987 0.661371 3.16098 0.319886 4.3603 0.157372C5.52686 1.19209e-07 7.01474 0 8.89558 0ZM4.56291 1.68686C3.53347 1.82571 2.93995 2.08697 2.50607 2.52206C2.07424 2.95714 1.81432 3.55371 1.67617 4.58846C1.53496 5.64583 1.53291 7.03851 1.53291 9C1.53291 10.9615 1.53496 12.3552 1.67617 13.4126C1.81432 14.4463 2.07424 15.0429 2.50709 15.4779C2.93995 15.913 3.53347 16.1743 4.56291 16.3131C5.61487 16.4551 7.00042 16.4571 8.95186 16.4571H13.0451C14.9965 16.4571 16.3831 16.4551 17.435 16.3131C18.4635 16.1743 19.057 15.913 19.4898 15.4779C19.9227 15.0429 20.1826 14.4463 20.3208 13.4115C20.462 12.3542 20.464 10.9615 20.464 9C20.464 7.03851 20.462 5.64583 20.3208 4.58743C20.1826 3.55371 19.9227 2.95714 19.4898 2.52206C19.057 2.08697 18.4635 1.82571 17.434 1.68686C16.3831 1.54491 14.9965 1.54286 13.0451 1.54286H8.95186C7.00042 1.54286 5.61589 1.54491 4.56291 1.68686Z" fill="#F1F4F5"/>
</svg>
