<svg width="19" height="20" viewBox="0 0 19 20" fill="none" xmlns="http://www.w3.org/2000/svg">
<path fill-rule="evenodd" clip-rule="evenodd" d="M0.499756 5C0.499756 3.67392 1.02654 2.40215 1.96422 1.46447C2.9019 0.526784 4.17367 0 5.49976 0H10.4998C10.765 0 11.0193 0.105357 11.2069 0.292893C11.3944 0.48043 11.4998 0.734784 11.4998 1C11.4998 1.26522 11.3944 1.51957 11.2069 1.70711C11.0193 1.89464 10.765 2 10.4998 2H5.49976C4.70411 2 3.94104 2.31607 3.37844 2.87868C2.81583 3.44129 2.49976 4.20435 2.49976 5V15C2.49976 15.7956 2.81583 16.5587 3.37844 17.1213C3.94104 17.6839 4.70411 18 5.49976 18H10.4998C10.765 18 11.0193 18.1054 11.2069 18.2929C11.3944 18.4804 11.4998 18.7348 11.4998 19C11.4998 19.2652 11.3944 19.5196 11.2069 19.7071C11.0193 19.8946 10.765 20 10.4998 20H5.49976C4.17367 20 2.9019 19.4732 1.96422 18.5355C1.02654 17.5979 0.499756 16.3261 0.499756 15V5Z" fill="#1D2D44"/>
<path fill-rule="evenodd" clip-rule="evenodd" d="M11.9698 5.31605C12.0596 5.22014 12.1674 5.14286 12.287 5.08864C12.4067 5.03442 12.5359 5.00431 12.6672 5.00004C12.7985 4.99577 12.9294 5.01742 13.0524 5.06374C13.1753 5.11007 13.2879 5.18018 13.3838 5.27005L18.1838 9.77005C18.2837 9.86359 18.3633 9.97664 18.4178 10.1022C18.4722 10.2278 18.5003 10.3632 18.5003 10.5C18.5003 10.6369 18.4722 10.7723 18.4178 10.8979C18.3633 11.0235 18.2837 11.1365 18.1838 11.23L13.3838 15.73C13.2879 15.8199 13.1753 15.8899 13.0523 15.9362C12.9294 15.9825 12.7985 16.0042 12.6672 15.9999C12.5359 15.9956 12.4068 15.9655 12.2871 15.9113C12.1674 15.8571 12.0596 15.7799 11.9698 15.684C11.8799 15.5882 11.8099 15.4756 11.7636 15.3526C11.7173 15.2297 11.6956 15.0988 11.6999 14.9675C11.7042 14.8362 11.7343 14.707 11.7885 14.5874C11.8427 14.4677 11.9199 14.3599 12.0158 14.27L14.9708 11.5H5.49976C5.23454 11.5 4.98019 11.3947 4.79265 11.2072C4.60511 11.0196 4.49976 10.7653 4.49976 10.5C4.49976 10.2348 4.60511 9.98048 4.79265 9.79294C4.98019 9.6054 5.23454 9.50005 5.49976 9.50005H14.9708L12.0158 6.73005C11.9198 6.64025 11.8426 6.53243 11.7884 6.41276C11.7341 6.29308 11.704 6.16389 11.6997 6.03258C11.6955 5.90126 11.7171 5.77039 11.7635 5.64745C11.8098 5.5245 11.8799 5.41189 11.9698 5.31605Z" fill="#1D2D44"/>
</svg>
