<svg width="28" height="28" viewBox="0 0 28 28" fill="none" xmlns="http://www.w3.org/2000/svg">
<path d="M2.9165 6.99984L9.33317 4.6665L15.7498 6.99984L12.8332 8.74984V10.4998C12.8332 10.4998 12.055 9.9165 9.33317 9.9165C6.61134 9.9165 5.83317 10.4998 5.83317 10.4998V8.74984L2.9165 6.99984ZM2.9165 6.99984V11.6665" stroke="#F1F4F5" stroke-width="1.5" stroke-linecap="round" stroke-linejoin="round"/>
<path d="M12.8333 9.91667V10.9538C12.8333 12.9582 11.2664 14.5833 9.33325 14.5833C7.40008 14.5833 5.83325 12.9582 5.83325 10.9538V9.91667M17.8709 12.8683C17.8709 12.8683 18.4368 12.4565 20.4166 12.4565C22.3964 12.4565 22.9623 12.8672 22.9623 12.8672M17.8709 12.8683V11.6667L15.7499 10.5L20.4166 8.75L25.0833 10.5L22.9623 11.6667V12.8672M17.8709 12.8683V13.2043C17.8709 13.8795 18.1391 14.527 18.6165 15.0044C19.0939 15.4818 19.7414 15.75 20.4166 15.75C21.0917 15.75 21.7392 15.4818 22.2166 15.0044C22.694 14.527 22.9623 13.8795 22.9623 13.2043V12.8672M18.6666 23.3333H22.9891C23.8909 23.3333 24.6073 22.8947 25.2513 22.281C26.5696 21.0257 24.4054 20.0223 23.5806 19.5312C22.847 19.0982 22.0325 18.8202 21.1873 18.7145C20.3421 18.6087 19.4842 18.6774 18.6666 18.9163M5.11575 18.5803C4.01558 19.1952 1.13042 20.4493 2.88742 22.0185C3.74608 22.785 4.70158 23.3333 5.90442 23.3333H12.7621C13.9638 23.3333 14.9204 22.785 15.7791 22.0185C17.5361 20.4493 14.6509 19.1952 13.5508 18.5803C10.9701 17.1395 7.69642 17.1395 5.11575 18.5803Z" stroke="#F1F4F5" stroke-width="1.5" stroke-linecap="round" stroke-linejoin="round"/>
</svg>
