<svg width="18" height="23" viewBox="0 0 18 23" fill="none" xmlns="http://www.w3.org/2000/svg">
<path d="M4 6.5C4 6.30109 4.07902 6.11032 4.21967 5.96967C4.36032 5.82902 4.55109 5.75 4.75 5.75H12.75C12.9489 5.75 13.1397 5.82902 13.2803 5.96967C13.421 6.11032 13.5 6.30109 13.5 6.5C13.5 6.69891 13.421 6.88968 13.2803 7.03033C13.1397 7.17098 12.9489 7.25 12.75 7.25H4.75C4.55109 7.25 4.36032 7.17098 4.21967 7.03033C4.07902 6.88968 4 6.69891 4 6.5ZM4.75 9.25C4.55109 9.25 4.36032 9.32902 4.21967 9.46967C4.07902 9.61032 4 9.80109 4 10C4 10.1989 4.07902 10.3897 4.21967 10.5303C4.36032 10.671 4.55109 10.75 4.75 10.75H9.75C9.94891 10.75 10.1397 10.671 10.2803 10.5303C10.421 10.3897 10.5 10.1989 10.5 10C10.5 9.80109 10.421 9.61032 10.2803 9.46967C10.1397 9.32902 9.94891 9.25 9.75 9.25H4.75Z" fill="#F1F4F5"/>
<path fill-rule="evenodd" clip-rule="evenodd" d="M6.695 0.75C5.328 0.75 4.225 0.75 3.358 0.867C2.458 0.987 1.7 1.247 1.098 1.848C0.496 2.45 0.238 3.208 0.117 4.108C1.04308e-07 4.975 0 6.078 0 7.445V15.555C0 16.922 1.04308e-07 18.025 0.117 18.892C0.237 19.792 0.497 20.55 1.098 21.152C1.7 21.754 2.458 22.012 3.358 22.134C4.225 22.25 5.328 22.25 6.695 22.25H10.805C12.172 22.25 13.275 22.25 14.142 22.134C15.042 22.012 15.8 21.754 16.402 21.152C17.004 20.55 17.262 19.792 17.384 18.892C17.5 18.025 17.5 16.922 17.5 15.555V7.445C17.5 6.078 17.5 4.975 17.384 4.108C17.262 3.208 17.004 2.45 16.402 1.848C15.8 1.246 15.042 0.988 14.142 0.867C13.275 0.75 12.172 0.75 10.805 0.75H6.695ZM2.16 2.909C2.437 2.632 2.825 2.452 3.56 2.353C4.314 2.252 5.316 2.25 6.751 2.25H10.751C12.186 2.25 13.187 2.252 13.943 2.353C14.677 2.452 15.065 2.633 15.342 2.909C15.619 3.186 15.799 3.574 15.898 4.309C15.999 5.063 16.001 6.065 16.001 7.5V14.75H4.532C3.714 14.75 3.156 14.75 2.677 14.878C2.25614 14.9918 1.85799 15.1772 1.5 15.426V7.5C1.5 6.065 1.502 5.063 1.603 4.308C1.702 3.574 1.884 3.186 2.16 2.909ZM1.527 17.749C1.542 18.103 1.566 18.414 1.603 18.692C1.702 19.426 1.883 19.814 2.159 20.091C2.436 20.368 2.824 20.548 3.559 20.647C4.313 20.748 5.315 20.75 6.75 20.75H10.75C12.185 20.75 13.186 20.748 13.942 20.647C14.676 20.548 15.064 20.367 15.341 20.091C15.618 19.814 15.798 19.426 15.897 18.691C15.98 18.076 15.996 17.296 15.999 16.25H4.648C3.67 16.25 3.328 16.256 3.065 16.327C2.71255 16.4215 2.38837 16.6004 2.12043 16.8481C1.85249 17.0958 1.64883 17.405 1.527 17.749Z" fill="#F1F4F5"/>
</svg>
