<svg width="25" height="24" viewBox="0 0 25 24" fill="none" xmlns="http://www.w3.org/2000/svg">
<path d="M7.75 7C7.75 6.80109 7.82902 6.61032 7.96967 6.46967C8.11032 6.32902 8.30109 6.25 8.5 6.25H16.5C16.6989 6.25 16.8897 6.32902 17.0303 6.46967C17.171 6.61032 17.25 6.80109 17.25 7C17.25 7.19891 17.171 7.38968 17.0303 7.53033C16.8897 7.67098 16.6989 7.75 16.5 7.75H8.5C8.30109 7.75 8.11032 7.67098 7.96967 7.53033C7.82902 7.38968 7.75 7.19891 7.75 7ZM8.5 9.75C8.30109 9.75 8.11032 9.82902 7.96967 9.96967C7.82902 10.1103 7.75 10.3011 7.75 10.5C7.75 10.6989 7.82902 10.8897 7.96967 11.0303C8.11032 11.171 8.30109 11.25 8.5 11.25H13.5C13.6989 11.25 13.8897 11.171 14.0303 11.0303C14.171 10.8897 14.25 10.6989 14.25 10.5C14.25 10.3011 14.171 10.1103 14.0303 9.96967C13.8897 9.82902 13.6989 9.75 13.5 9.75H8.5Z" fill="#F1F4F5"/>
<path fill-rule="evenodd" clip-rule="evenodd" d="M10.445 1.25C9.078 1.25 7.975 1.25 7.108 1.367C6.208 1.487 5.45 1.747 4.848 2.348C4.246 2.95 3.988 3.708 3.867 4.608C3.75 5.475 3.75 6.578 3.75 7.945V16.055C3.75 17.422 3.75 18.525 3.867 19.392C3.987 20.292 4.247 21.05 4.848 21.652C5.45 22.254 6.208 22.512 7.108 22.634C7.975 22.75 9.078 22.75 10.445 22.75H14.555C15.922 22.75 17.025 22.75 17.892 22.634C18.792 22.512 19.55 22.254 20.152 21.652C20.754 21.05 21.012 20.292 21.134 19.392C21.25 18.525 21.25 17.422 21.25 16.055V7.945C21.25 6.578 21.25 5.475 21.134 4.608C21.012 3.708 20.754 2.95 20.152 2.348C19.55 1.746 18.792 1.488 17.892 1.367C17.025 1.25 15.922 1.25 14.555 1.25H10.445ZM5.91 3.409C6.187 3.132 6.575 2.952 7.31 2.853C8.064 2.752 9.066 2.75 10.501 2.75H14.501C15.936 2.75 16.937 2.752 17.693 2.853C18.427 2.952 18.815 3.133 19.092 3.409C19.369 3.686 19.549 4.074 19.648 4.809C19.749 5.563 19.751 6.565 19.751 8V15.25H8.282C7.464 15.25 6.906 15.25 6.427 15.378C6.00614 15.4918 5.60799 15.6772 5.25 15.926V8C5.25 6.565 5.252 5.563 5.353 4.808C5.452 4.074 5.634 3.686 5.91 3.409ZM5.277 18.249C5.292 18.603 5.316 18.914 5.353 19.192C5.452 19.926 5.633 20.314 5.909 20.591C6.186 20.868 6.574 21.048 7.309 21.147C8.063 21.248 9.065 21.25 10.5 21.25H14.5C15.935 21.25 16.936 21.248 17.692 21.147C18.426 21.048 18.814 20.867 19.091 20.591C19.368 20.314 19.548 19.926 19.647 19.191C19.73 18.576 19.746 17.796 19.749 16.75H8.398C7.42 16.75 7.078 16.756 6.815 16.827C6.46255 16.9215 6.13837 17.1004 5.87043 17.3481C5.60249 17.5958 5.39883 17.905 5.277 18.249Z" fill="#F1F4F5"/>
</svg>
