<svg width="16" height="17" viewBox="0 0 16 17" fill="none" xmlns="http://www.w3.org/2000/svg">
<path d="M12.5 3H12.415V4H12.5C12.6326 4 12.7598 4.05268 12.8536 4.14645C12.9473 4.24021 13 4.36739 13 4.5V14.5C13 14.6326 12.9473 14.7598 12.8536 14.8536C12.7598 14.9473 12.6326 15 12.5 15H3.5C3.36739 15 3.24021 14.9473 3.14645 14.8536C3.05268 14.7598 3 14.6326 3 14.5V4.5C3 4.36739 3.05268 4.24021 3.14645 4.14645C3.24021 4.05268 3.36739 4 3.5 4H3.585V3H3.5C3.10218 3 2.72064 3.15804 2.43934 3.43934C2.15804 3.72064 2 4.10218 2 4.5V14.5C2 14.8978 2.15804 15.2794 2.43934 15.5607C2.72064 15.842 3.10218 16 3.5 16H12.5C12.8978 16 13.2794 15.842 13.5607 15.5607C13.842 15.2794 14 14.8978 14 14.5V4.5C14 4.10218 13.842 3.72064 13.5607 3.43934C13.2794 3.15804 12.8978 3 12.5 3Z" fill="#1D2D44"/>
<path d="M11.5 2H10V0.5H6V2H4.5V5H11.5V2ZM10.5 4H5.5V3H7V1.5H9V3H10.5V4Z" fill="#1D2D44"/>
<path d="M5 7H11V8H5V7ZM5 9.5H11V10.5H5V9.5ZM5 12H11V13H5V12Z" fill="#1D2D44"/>
</svg>
