<svg width="14" height="12" viewBox="0 0 14 12" fill="none" xmlns="http://www.w3.org/2000/svg">
<path d="M9.42533 6.00005L13.3003 2.10005C13.4837 1.91672 13.5797 1.68772 13.5883 1.41305C13.597 1.13838 13.501 0.900715 13.3003 0.700048C13.117 0.516715 12.8837 0.425049 12.6003 0.425049C12.317 0.425049 12.0837 0.516715 11.9003 0.700048L7.30033 5.30005C7.20033 5.40005 7.12933 5.50838 7.08733 5.62505C7.04533 5.74172 7.02466 5.86672 7.02533 6.00005C7.026 6.13338 7.04666 6.25838 7.08733 6.37505C7.128 6.49172 7.199 6.60005 7.30033 6.70005L11.9003 11.3C12.0837 11.4834 12.3127 11.5794 12.5873 11.588C12.862 11.5967 13.0997 11.5007 13.3003 11.3C13.4837 11.1167 13.5753 10.8834 13.5753 10.6C13.5753 10.3167 13.4837 10.0834 13.3003 9.90005L9.42533 6.00005ZM2.82533 6.00005L6.70033 2.10005C6.88366 1.91672 6.97966 1.68772 6.98833 1.41305C6.997 1.13838 6.901 0.900715 6.70033 0.700048C6.517 0.516715 6.28366 0.425049 6.00033 0.425049C5.717 0.425049 5.48366 0.516715 5.30033 0.700048L0.70033 5.30005C0.600329 5.40005 0.529328 5.50838 0.487329 5.62505C0.445329 5.74172 0.424662 5.86672 0.425328 6.00005C0.425995 6.13338 0.446662 6.25838 0.487329 6.37505C0.527995 6.49172 0.598996 6.60005 0.70033 6.70005L5.30033 11.3C5.48366 11.4834 5.71266 11.5794 5.98733 11.588C6.262 11.5967 6.49966 11.5007 6.70033 11.3C6.88366 11.1167 6.97533 10.8834 6.97533 10.6C6.97533 10.3167 6.88366 10.0834 6.70033 9.90005L2.82533 6.00005Z" fill="#F1F4F5"/>
</svg>
