<svg width="14" height="12" viewBox="0 0 14 12" fill="none" xmlns="http://www.w3.org/2000/svg">
<path d="M4.57467 6.00005L0.699671 2.10005C0.516337 1.91672 0.420338 1.68772 0.411671 1.41305C0.403004 1.13838 0.499004 0.900715 0.699671 0.700048C0.883004 0.516715 1.11634 0.425049 1.39967 0.425049C1.683 0.425049 1.91634 0.516715 2.09967 0.700048L6.69967 5.30005C6.79967 5.40005 6.87067 5.50838 6.91267 5.62505C6.95467 5.74172 6.97534 5.86672 6.97467 6.00005C6.974 6.13338 6.95334 6.25838 6.91267 6.37505C6.872 6.49172 6.801 6.60005 6.69967 6.70005L2.09967 11.3C1.91634 11.4834 1.68734 11.5794 1.41267 11.588C1.138 11.5967 0.900337 11.5007 0.699671 11.3C0.516337 11.1167 0.424671 10.8834 0.424671 10.6C0.424671 10.3167 0.516337 10.0834 0.699671 9.90005L4.57467 6.00005ZM11.1747 6.00005L7.29967 2.10005C7.11634 1.91672 7.02034 1.68772 7.01167 1.41305C7.003 1.13838 7.099 0.900715 7.29967 0.700048C7.483 0.516715 7.71634 0.425049 7.99967 0.425049C8.283 0.425049 8.51634 0.516715 8.69967 0.700048L13.2997 5.30005C13.3997 5.40005 13.4707 5.50838 13.5127 5.62505C13.5547 5.74172 13.5753 5.86672 13.5747 6.00005C13.574 6.13338 13.5533 6.25838 13.5127 6.37505C13.472 6.49172 13.401 6.60005 13.2997 6.70005L8.69967 11.3C8.51634 11.4834 8.28734 11.5794 8.01267 11.588C7.738 11.5967 7.50034 11.5007 7.29967 11.3C7.11634 11.1167 7.02467 10.8834 7.02467 10.6C7.02467 10.3167 7.11634 10.0834 7.29967 9.90005L11.1747 6.00005Z" fill="#F1F4F5"/>
</svg>
