<svg width="22" height="22" viewBox="0 0 22 22" fill="none" xmlns="http://www.w3.org/2000/svg">
<path fill-rule="evenodd" clip-rule="evenodd" d="M11 7.01172C10.0054 7.01172 9.05161 7.40681 8.34835 8.11007C7.64509 8.81333 7.25 9.76716 7.25 10.7617C7.25 11.7563 7.64509 12.7101 8.34835 13.4134C9.05161 14.1166 10.0054 14.5117 11 14.5117C11.9946 14.5117 12.9484 14.1166 13.6517 13.4134C14.3549 12.7101 14.75 11.7563 14.75 10.7617C14.75 9.76716 14.3549 8.81333 13.6517 8.11007C12.9484 7.40681 11.9946 7.01172 11 7.01172ZM8.75 10.7617C8.75 10.165 8.98705 9.59269 9.40901 9.17073C9.83097 8.74877 10.4033 8.51172 11 8.51172C11.5967 8.51172 12.169 8.74877 12.591 9.17073C13.0129 9.59269 13.25 10.165 13.25 10.7617C13.25 11.3585 13.0129 11.9308 12.591 12.3527C12.169 12.7747 11.5967 13.0117 11 13.0117C10.4033 13.0117 9.83097 12.7747 9.40901 12.3527C8.98705 11.9308 8.75 11.3585 8.75 10.7617Z" fill="#F1F4F5"/>
<path fill-rule="evenodd" clip-rule="evenodd" d="M10.9748 0.0117188C10.5298 0.0117188 10.1588 0.0117187 9.85477 0.0317187C9.54399 0.0442351 9.23746 0.108448 8.94777 0.221719C8.61402 0.359808 8.31075 0.562292 8.05526 0.817606C7.79978 1.07292 7.59709 1.37606 7.45877 1.70972C7.31377 2.05972 7.27477 2.42972 7.25877 2.83172C7.25699 2.9787 7.21799 3.12284 7.14542 3.25067C7.07285 3.3785 6.96907 3.48585 6.84377 3.56272C6.7146 3.63304 6.5697 3.66947 6.42263 3.66859C6.27556 3.66772 6.1311 3.62957 6.00277 3.55772C5.64677 3.36972 5.30678 3.21872 4.93078 3.16872C4.57272 3.12162 4.20889 3.14551 3.86007 3.23902C3.51125 3.33253 3.18426 3.49384 2.89777 3.71372C2.65517 3.9082 2.44665 4.14173 2.28077 4.40472C2.11077 4.65872 1.92477 4.97972 1.70277 5.36472L1.67777 5.40872C1.45477 5.79372 1.26977 6.11472 1.13577 6.38872C0.995775 6.67472 0.885775 6.95672 0.845775 7.26872C0.750375 7.99171 0.946054 8.72299 1.38977 9.30172C1.62077 9.60272 1.92177 9.82172 2.26177 10.0357C2.38841 10.1108 2.49392 10.2168 2.56842 10.3438C2.64293 10.4707 2.68399 10.6145 2.68777 10.7617C2.68399 10.9089 2.64293 11.0527 2.56842 11.1797C2.49392 11.3066 2.38841 11.4126 2.26177 11.4877C1.92177 11.7017 1.62177 11.9207 1.38977 12.2217C1.16989 12.5082 1.00859 12.8352 0.915078 13.184C0.821566 13.5328 0.797678 13.8967 0.844775 14.2547C0.885775 14.5667 0.994775 14.8487 1.13477 15.1347C1.26977 15.4087 1.45477 15.7297 1.67777 16.1147L1.70277 16.1587C1.92477 16.5437 2.11077 16.8647 2.28077 17.1187C2.45777 17.3817 2.64777 17.6187 2.89777 17.8087C3.18418 18.0288 3.51114 18.1903 3.85996 18.2839C4.20879 18.3776 4.57265 18.4017 4.93078 18.3547C5.30678 18.3047 5.64677 18.1547 6.00277 17.9657C6.13098 17.894 6.27525 17.856 6.42213 17.8551C6.56901 17.8542 6.71372 17.8906 6.84277 17.9607C6.96909 18.0366 7.07378 18.1437 7.1468 18.2717C7.21982 18.3997 7.25872 18.5444 7.25978 18.6917C7.27478 19.0937 7.31378 19.4637 7.45977 19.8137C7.59786 20.1475 7.80035 20.4507 8.05566 20.7062C8.31098 20.9617 8.61412 21.1644 8.94777 21.3027C9.23777 21.4227 9.53777 21.4697 9.85477 21.4907C10.1588 21.5117 10.5298 21.5117 10.9748 21.5117H11.0248C11.4698 21.5117 11.8408 21.5117 12.1448 21.4917C12.4628 21.4697 12.7618 21.4227 13.0518 21.3017C13.3855 21.1636 13.6888 20.9611 13.9443 20.7058C14.1998 20.4505 14.4025 20.1474 14.5408 19.8137C14.6858 19.4637 14.7248 19.0937 14.7408 18.6917C14.7424 18.5446 14.7813 18.4002 14.8539 18.2722C14.9265 18.1442 15.0303 18.0367 15.1558 17.9597C15.285 17.8895 15.43 17.8533 15.577 17.8543C15.7241 17.8554 15.8685 17.8937 15.9968 17.9657C16.3528 18.1537 16.6928 18.3047 17.0688 18.3537C17.7918 18.4491 18.523 18.2534 19.1018 17.8097C19.3518 17.6177 19.5418 17.3817 19.7188 17.1187C19.8888 16.8647 20.0748 16.5437 20.2968 16.1587L20.3218 16.1147C20.5448 15.7297 20.7298 15.4087 20.8638 15.1347C21.0038 14.8487 21.1138 14.5657 21.1538 14.2547C21.2492 13.5317 21.0535 12.8004 20.6098 12.2217C20.3788 11.9207 20.0778 11.7017 19.7378 11.4877C19.6111 11.4126 19.5056 11.3066 19.4311 11.1797C19.3566 11.0527 19.3156 10.9089 19.3118 10.7617C19.3118 10.4837 19.4638 10.2077 19.7378 10.0357C20.0778 9.82172 20.3778 9.60272 20.6098 9.30172C20.8297 9.01523 20.991 8.68825 21.0845 8.33942C21.178 7.9906 21.2019 7.62677 21.1548 7.26872C21.1077 6.96132 21.0096 6.66391 20.8648 6.38872C20.694 6.0565 20.5129 5.72967 20.3218 5.40872L20.2968 5.36472C20.1141 5.0388 19.9214 4.71864 19.7188 4.40472C19.5528 4.14208 19.3443 3.9089 19.1018 3.71472C18.8154 3.49466 18.4884 3.33318 18.1396 3.23949C17.7908 3.14581 17.4269 3.12176 17.0688 3.16872C16.6928 3.21872 16.3528 3.36872 15.9968 3.55772C15.8686 3.62939 15.7243 3.66744 15.5774 3.66832C15.4305 3.66919 15.2858 3.63286 15.1568 3.56272C15.0311 3.48609 14.9269 3.37884 14.854 3.251C14.7811 3.12315 14.7418 2.97889 14.7398 2.83172C14.7248 2.42972 14.6858 2.05972 14.5398 1.70972C14.4017 1.37597 14.1992 1.07269 13.9439 0.817205C13.6886 0.56172 13.3854 0.359032 13.0518 0.220719C12.7618 0.100719 12.4618 0.0537188 12.1448 0.0327188C11.8408 0.0117188 11.4698 0.0117188 11.0248 0.0117188H10.9748ZM9.52178 1.60672C9.59877 1.57472 9.71577 1.54572 9.95677 1.52872C10.2038 1.51172 10.5238 1.51172 10.9998 1.51172C11.4758 1.51172 11.7958 1.51172 12.0428 1.52872C12.2838 1.54572 12.4008 1.57472 12.4778 1.60672C12.7848 1.73372 13.0278 1.97672 13.1548 2.28372C13.1948 2.37972 13.2278 2.53072 13.2408 2.88772C13.2708 3.67972 13.6798 4.44272 14.4058 4.86172C15.1318 5.28072 15.9968 5.25372 16.6978 4.88372C17.0138 4.71672 17.1608 4.66972 17.2648 4.65672C17.5933 4.6133 17.9257 4.70215 18.1888 4.90372C18.2548 4.95472 18.3388 5.04172 18.4738 5.24172C18.6128 5.44772 18.7728 5.72472 19.0108 6.13672C19.2488 6.54872 19.4078 6.82672 19.5168 7.04872C19.6238 7.26572 19.6568 7.38172 19.6668 7.46472C19.7102 7.79328 19.6213 8.12564 19.4198 8.38872C19.3558 8.47172 19.2418 8.57572 18.9398 8.76572C18.2678 9.18772 17.8118 9.92372 17.8118 10.7617C17.8118 11.5997 18.2678 12.3357 18.9398 12.7577C19.2418 12.9477 19.3558 13.0517 19.4198 13.1347C19.6218 13.3977 19.7098 13.7297 19.6668 14.0587C19.6568 14.1417 19.6228 14.2587 19.5168 14.4747C19.4078 14.6977 19.2488 14.9747 19.0108 15.3867C18.7728 15.7987 18.6118 16.0757 18.4738 16.2817C18.3388 16.4817 18.2548 16.5687 18.1888 16.6197C17.9257 16.8213 17.5933 16.9101 17.2648 16.8667C17.1608 16.8537 17.0148 16.8067 16.6978 16.6397C15.9978 16.2697 15.1318 16.2417 14.4058 16.6607C13.6798 17.0797 13.2708 17.8437 13.2408 18.6357C13.2278 18.9927 13.1948 19.1437 13.1548 19.2397C13.092 19.3915 12.9998 19.5294 12.8837 19.6456C12.7675 19.7618 12.6296 19.8539 12.4778 19.9167C12.4008 19.9487 12.2838 19.9777 12.0428 19.9947C11.7958 20.0117 11.4758 20.0117 10.9998 20.0117C10.5238 20.0117 10.2038 20.0117 9.95677 19.9947C9.71577 19.9777 9.59877 19.9487 9.52178 19.9167C9.36998 19.8539 9.23205 19.7618 9.11589 19.6456C8.99972 19.5294 8.9076 19.3915 8.84478 19.2397C8.80478 19.1437 8.77177 18.9927 8.75877 18.6357C8.72877 17.8437 8.31977 17.0807 7.59377 16.6617C6.86777 16.2427 6.00278 16.2697 5.30177 16.6397C4.98577 16.8067 4.83878 16.8537 4.73478 16.8667C4.40621 16.9101 4.07385 16.8213 3.81077 16.6197C3.74477 16.5687 3.66077 16.4817 3.52577 16.2817C3.33766 15.989 3.15857 15.6905 2.98878 15.3867C2.75077 14.9747 2.59177 14.6967 2.48277 14.4747C2.37577 14.2577 2.34277 14.1417 2.33277 14.0587C2.28936 13.7302 2.3782 13.3978 2.57977 13.1347C2.64377 13.0517 2.75777 12.9477 3.05977 12.7577C3.73177 12.3357 4.18778 11.5997 4.18778 10.7617C4.18778 9.92372 3.73177 9.18772 3.05977 8.76572C2.75777 8.57572 2.64377 8.47172 2.57977 8.38872C2.3782 8.12564 2.28936 7.79328 2.33277 7.46472C2.34277 7.38172 2.37677 7.26472 2.48277 7.04872C2.59177 6.82572 2.75077 6.54872 2.98878 6.13672C3.22677 5.72472 3.38777 5.44772 3.52577 5.24172C3.66077 5.04172 3.74477 4.95472 3.81077 4.90372C4.07385 4.70215 4.40621 4.6133 4.73478 4.65672C4.83878 4.66972 4.98478 4.71672 5.30177 4.88372C6.00177 5.25372 6.86777 5.28172 7.59377 4.86172C8.31977 4.44272 8.72877 3.67972 8.75877 2.88772C8.77177 2.53072 8.80478 2.37972 8.84478 2.28372C8.97178 1.97672 9.21478 1.73372 9.52178 1.60672Z" fill="#F1F4F5"/>
</svg>
