<svg width="24" height="24" viewBox="0 0 24 24" fill="none" xmlns="http://www.w3.org/2000/svg">
<path d="M7.52314 12.5281C5.472 12.5281 3.80057 10.7011 3.80057 8.47812C3.80057 6.28041 5.46343 4.53955 7.52314 4.53955C9.56571 4.53955 11.2461 6.30612 11.2461 8.49527C11.2376 10.7097 9.56571 12.5281 7.52314 12.5281ZM17.4506 12.7176C15.6754 12.7176 14.2191 11.1233 14.2191 9.16727C14.2191 7.25412 15.6583 5.71169 17.4506 5.71169C19.2257 5.71169 20.6906 7.28027 20.682 9.18441C20.6734 11.1323 19.2257 12.7176 17.4506 12.7176ZM7.52314 11.227C8.78143 11.227 9.85886 10.0206 9.85886 8.49527C9.85886 6.99527 8.79857 5.84112 7.52314 5.84112C6.23914 5.84112 5.18786 6.97855 5.18786 8.47769C5.18786 10.0034 6.24771 11.227 7.52314 11.227ZM17.4506 11.4336C18.5019 11.4336 19.398 10.4256 19.398 9.18441C19.398 7.96941 18.5109 6.99569 17.4506 6.99569C16.365 6.99569 15.4946 7.95227 15.4946 9.16727C15.4946 10.4256 16.3907 11.4336 17.4506 11.4336ZM22.242 20.62H15.477C15.891 20.3873 16.2099 19.87 16.1494 19.3446H22.4571C22.6294 19.3446 22.7156 19.276 22.7156 19.1118C22.7156 16.975 20.277 14.9757 17.4587 14.9757C16.3731 14.9757 15.3994 15.2341 14.5633 15.7253C14.2859 15.3741 13.9577 15.0663 13.5896 14.812C14.7013 14.0791 16.0367 13.7003 17.4587 13.7003C21.0699 13.7003 24 16.3197 24 19.1894C24 20.146 23.4141 20.62 22.242 20.62ZM12.9351 20.62H2.11114C0.681 20.62 0 20.1893 0 19.2413C0 16.9836 2.85257 13.717 7.52314 13.717C12.2027 13.717 15.0549 16.9836 15.0549 19.2413C15.0549 20.1893 14.3743 20.62 12.9351 20.62ZM13.3487 19.3188C13.5729 19.3188 13.6676 19.2588 13.6676 19.0776C13.6676 17.6641 11.4789 15.019 7.52314 15.019C3.576 15.019 1.38771 17.6641 1.38771 19.0776C1.38771 19.2584 1.47343 19.3188 1.698 19.3188H13.3487Z" fill="#1D2D44"/>
</svg>
