<svg width="18" height="19" viewBox="0 0 18 19" fill="none" xmlns="http://www.w3.org/2000/svg">
<path d="M14.25 16.0625C14.4489 16.0625 14.6397 15.9835 14.7803 15.8428C14.921 15.7022 15 15.5114 15 15.3125V14.378C15.003 12.2735 12.0195 10.625 9 10.625C5.9805 10.625 3 12.2735 3 14.378V15.3125C3 15.5114 3.07902 15.7022 3.21967 15.8428C3.36032 15.9835 3.55109 16.0625 3.75 16.0625H14.25ZM11.703 5.6405C11.703 5.99546 11.6331 6.34695 11.4972 6.67489C11.3614 7.00284 11.1623 7.30081 10.9113 7.55181C10.6603 7.80281 10.3623 8.00191 10.0344 8.13775C9.70645 8.27358 9.35496 8.3435 9 8.3435C8.64504 8.3435 8.29355 8.27358 7.96561 8.13775C7.63766 8.00191 7.33969 7.80281 7.08869 7.55181C6.83769 7.30081 6.63859 7.00284 6.50275 6.67489C6.36691 6.34695 6.297 5.99546 6.297 5.6405C6.297 4.92362 6.58178 4.2361 7.08869 3.72919C7.5956 3.22228 8.28312 2.9375 9 2.9375C9.71688 2.9375 10.4044 3.22228 10.9113 3.72919C11.4182 4.2361 11.703 4.92362 11.703 5.6405Z" stroke="black" stroke-width="1.5" stroke-linecap="round" stroke-linejoin="round"/>
</svg>
