<svg width="12" height="16" viewBox="0 0 12 16" fill="none" xmlns="http://www.w3.org/2000/svg">
<path d="M10.5 3H10.415V4H10.5C10.6326 4 10.7598 4.05268 10.8536 4.14645C10.9473 4.24021 11 4.36739 11 4.5V14.5C11 14.6326 10.9473 14.7598 10.8536 14.8536C10.7598 14.9473 10.6326 15 10.5 15H1.5C1.36739 15 1.24021 14.9473 1.14645 14.8536C1.05268 14.7598 1 14.6326 1 14.5V4.5C1 4.36739 1.05268 4.24021 1.14645 4.14645C1.24021 4.05268 1.36739 4 1.5 4H1.585V3H1.5C1.10218 3 0.720644 3.15804 0.43934 3.43934C0.158035 3.72064 0 4.10218 0 4.5V14.5C0 14.8978 0.158035 15.2794 0.43934 15.5607C0.720644 15.842 1.10218 16 1.5 16H10.5C10.8978 16 11.2794 15.842 11.5607 15.5607C11.842 15.2794 12 14.8978 12 14.5V4.5C12 4.10218 11.842 3.72064 11.5607 3.43934C11.2794 3.15804 10.8978 3 10.5 3Z" fill="#1D2D44"/>
<path d="M9.5 2H8V0.5H4V2H2.5V5H9.5V2ZM8.5 4H3.5V3H5V1.5H7V3H8.5V4Z" fill="#1D2D44"/>
<path d="M3 7H9V8H3V7ZM3 9.5H9V10.5H3V9.5ZM3 12H9V13H3V12Z" fill="#1D2D44"/>
</svg>
