<svg width="18" height="19" viewBox="0 0 18 19" fill="none" xmlns="http://www.w3.org/2000/svg">
<path d="M6.375 5.375C6.375 5.27554 6.41451 5.18016 6.48483 5.10984C6.55516 5.03951 6.65054 5 6.75 5H11.25C11.3495 5 11.4448 5.03951 11.5152 5.10984C11.5855 5.18016 11.625 5.27554 11.625 5.375C11.625 5.47446 11.5855 5.56984 11.5152 5.64016C11.4448 5.71049 11.3495 5.75 11.25 5.75H6.75C6.65054 5.75 6.55516 5.71049 6.48483 5.64016C6.41451 5.56984 6.375 5.47446 6.375 5.375ZM6 9.5C5.80109 9.5 5.61032 9.57902 5.46967 9.71967C5.32902 9.86032 5.25 10.0511 5.25 10.25C5.25 10.4489 5.32902 10.6397 5.46967 10.7803C5.61032 10.921 5.80109 11 6 11C6.19891 11 6.38968 10.921 6.53033 10.7803C6.67098 10.6397 6.75 10.4489 6.75 10.25C6.75 10.0511 6.67098 9.86032 6.53033 9.71967C6.38968 9.57902 6.19891 9.5 6 9.5ZM12 9.5C11.8011 9.5 11.6103 9.57902 11.4697 9.71967C11.329 9.86032 11.25 10.0511 11.25 10.25C11.25 10.4489 11.329 10.6397 11.4697 10.7803C11.6103 10.921 11.8011 11 12 11C12.1989 11 12.3897 10.921 12.5303 10.7803C12.671 10.6397 12.75 10.4489 12.75 10.25C12.75 10.0511 12.671 9.86032 12.5303 9.71967C12.3897 9.57902 12.1989 9.5 12 9.5ZM8.25 10.25C8.25 10.0511 8.32902 9.86032 8.46967 9.71967C8.61032 9.57902 8.80109 9.5 9 9.5C9.19891 9.5 9.38968 9.57902 9.53033 9.71967C9.67098 9.86032 9.75 10.0511 9.75 10.25C9.75 10.4489 9.67098 10.6397 9.53033 10.7803C9.38968 10.921 9.19891 11 9 11C8.80109 11 8.61032 10.921 8.46967 10.7803C8.32902 10.6397 8.25 10.4489 8.25 10.25ZM6 12.5C5.80109 12.5 5.61032 12.579 5.46967 12.7197C5.32902 12.8603 5.25 13.0511 5.25 13.25C5.25 13.4489 5.32902 13.6397 5.46967 13.7803C5.61032 13.921 5.80109 14 6 14C6.19891 14 6.38968 13.921 6.53033 13.7803C6.67098 13.6397 6.75 13.4489 6.75 13.25C6.75 13.0511 6.67098 12.8603 6.53033 12.7197C6.38968 12.579 6.19891 12.5 6 12.5ZM8.25 13.25C8.25 13.0511 8.32902 12.8603 8.46967 12.7197C8.61032 12.579 8.80109 12.5 9 12.5C9.19891 12.5 9.38968 12.579 9.53033 12.7197C9.67098 12.8603 9.75 13.0511 9.75 13.25C9.75 13.4489 9.67098 13.6397 9.53033 13.7803C9.38968 13.921 9.19891 14 9 14C8.80109 14 8.61032 13.921 8.46967 13.7803C8.32902 13.6397 8.25 13.4489 8.25 13.25Z" fill="#1D2D44"/>
<path d="M10.2172 2.75H7.78275C6.95775 2.75 6.31425 2.75 5.799 2.792C5.2755 2.83475 4.85025 2.92325 4.46775 3.1175C3.83253 3.4411 3.3161 3.95753 2.9925 4.59275C2.7975 4.97525 2.70975 5.4005 2.667 5.924C2.625 6.44 2.625 7.082 2.625 7.90775V11.0922C2.625 11.9172 2.625 12.5608 2.667 13.076C2.70975 13.5995 2.79825 14.0247 2.9925 14.4072C3.3161 15.0425 3.83253 15.5589 4.46775 15.8825C4.85025 16.0775 5.2755 16.1652 5.799 16.208C6.315 16.25 6.957 16.25 7.78275 16.25H10.2172C11.0422 16.25 11.6857 16.25 12.201 16.208C12.7245 16.1652 13.1497 16.0767 13.5322 15.8825C14.1675 15.5589 14.6839 15.0425 15.0075 14.4072C15.2025 14.0247 15.2902 13.5995 15.333 13.076C15.375 12.5608 15.375 11.918 15.375 11.0922V7.90775C15.375 7.08275 15.375 6.43925 15.333 5.924C15.2902 5.4005 15.2017 4.97525 15.0075 4.59275C14.6839 3.95753 14.1675 3.4411 13.5322 3.1175C13.1497 2.9225 12.7245 2.83475 12.201 2.792C11.685 2.75 11.043 2.75 10.2172 2.75ZM4.8075 3.78575C5.067 3.65375 5.382 3.57875 5.85975 3.53975C6.34125 3.5 6.954 3.5 7.8 3.5H10.2C11.046 3.5 11.6587 3.5 12.1395 3.53975C12.6172 3.57875 12.9322 3.65375 13.1917 3.78575C13.6858 4.03745 14.0876 4.43915 14.3392 4.93325C14.4712 5.19275 14.5462 5.50775 14.5852 5.9855C14.6137 6.32825 14.622 6.737 14.6242 7.25H3.375C3.378 6.737 3.3855 6.3275 3.414 5.9855C3.453 5.50775 3.528 5.19275 3.66 4.93325C3.9117 4.43915 4.3134 4.03745 4.8075 3.78575ZM3.375 8H14.625V11.075C14.625 11.921 14.625 12.5338 14.5852 13.0145C14.5462 13.4923 14.4712 13.8073 14.3392 14.0668C14.0876 14.5609 13.6858 14.9626 13.1917 15.2142C12.9322 15.3462 12.6172 15.4213 12.1402 15.4603C11.6587 15.5 11.046 15.5 10.2 15.5H7.8C6.954 15.5 6.34125 15.5 5.8605 15.4603C5.38275 15.4213 5.06775 15.3462 4.80825 15.2142C4.31415 14.9626 3.91245 14.5609 3.66075 14.0668C3.52875 13.8073 3.45375 13.4923 3.41475 13.0153C3.375 12.5338 3.375 11.921 3.375 11.075V8Z" fill="#1D2D44"/>
<path fill-rule="evenodd" clip-rule="evenodd" d="M6.1875 5.375C6.1875 5.22582 6.24676 5.08274 6.35225 4.97725C6.45774 4.87176 6.60082 4.8125 6.75 4.8125H11.25C11.3992 4.8125 11.5423 4.87176 11.6477 4.97725C11.7532 5.08274 11.8125 5.22582 11.8125 5.375C11.8125 5.52418 11.7532 5.66726 11.6477 5.77275C11.5423 5.87824 11.3992 5.9375 11.25 5.9375H6.75C6.60082 5.9375 6.45774 5.87824 6.35225 5.77275C6.24676 5.66726 6.1875 5.52418 6.1875 5.375ZM5.0625 10.25C5.0625 10.0014 5.16127 9.7629 5.33709 9.58709C5.5129 9.41127 5.75136 9.3125 6 9.3125C6.24864 9.3125 6.4871 9.41127 6.66291 9.58709C6.83873 9.7629 6.9375 10.0014 6.9375 10.25C6.9375 10.4986 6.83873 10.7371 6.66291 10.9129C6.4871 11.0887 6.24864 11.1875 6 11.1875C5.75136 11.1875 5.5129 11.0887 5.33709 10.9129C5.16127 10.7371 5.0625 10.4986 5.0625 10.25ZM11.0625 10.25C11.0625 10.0014 11.1613 9.7629 11.3371 9.58709C11.5129 9.41127 11.7514 9.3125 12 9.3125C12.2486 9.3125 12.4871 9.41127 12.6629 9.58709C12.8387 9.7629 12.9375 10.0014 12.9375 10.25C12.9375 10.4986 12.8387 10.7371 12.6629 10.9129C12.4871 11.0887 12.2486 11.1875 12 11.1875C11.7514 11.1875 11.5129 11.0887 11.3371 10.9129C11.1613 10.7371 11.0625 10.4986 11.0625 10.25ZM8.0625 10.25C8.0625 10.0014 8.16127 9.7629 8.33709 9.58709C8.5129 9.41127 8.75136 9.3125 9 9.3125C9.24864 9.3125 9.4871 9.41127 9.66291 9.58709C9.83873 9.7629 9.9375 10.0014 9.9375 10.25C9.9375 10.4986 9.83873 10.7371 9.66291 10.9129C9.4871 11.0887 9.24864 11.1875 9 11.1875C8.75136 11.1875 8.5129 11.0887 8.33709 10.9129C8.16127 10.7371 8.0625 10.4986 8.0625 10.25ZM5.0625 13.25C5.0625 13.0014 5.16127 12.7629 5.33709 12.5871C5.5129 12.4113 5.75136 12.3125 6 12.3125C6.24864 12.3125 6.4871 12.4113 6.66291 12.5871C6.83873 12.7629 6.9375 13.0014 6.9375 13.25C6.9375 13.4986 6.83873 13.7371 6.66291 13.9129C6.4871 14.0887 6.24864 14.1875 6 14.1875C5.75136 14.1875 5.5129 14.0887 5.33709 13.9129C5.16127 13.7371 5.0625 13.4986 5.0625 13.25ZM8.0625 13.25C8.0625 13.0014 8.16127 12.7629 8.33709 12.5871C8.5129 12.4113 8.75136 12.3125 9 12.3125C9.24864 12.3125 9.4871 12.4113 9.66291 12.5871C9.83873 12.7629 9.9375 13.0014 9.9375 13.25C9.9375 13.4986 9.83873 13.7371 9.66291 13.9129C9.4871 14.0887 9.24864 14.1875 9 14.1875C8.75136 14.1875 8.5129 14.0887 8.33709 13.9129C8.16127 13.7371 8.0625 13.4986 8.0625 13.25ZM10.2255 2.5625C11.0438 2.5625 11.6933 2.5625 12.216 2.60525C12.7515 2.64875 13.2038 2.74025 13.6178 2.95025C14.288 3.29213 14.8328 3.83744 15.174 4.508C15.3848 4.9205 15.4763 5.3735 15.5198 5.909C15.5625 6.43175 15.5625 7.08125 15.5625 7.8995V11.1005C15.5625 11.9187 15.5625 12.5682 15.5198 13.091C15.4763 13.6265 15.3848 14.0787 15.1748 14.4927C14.8331 15.1629 14.288 15.7076 13.6178 16.049C13.2038 16.2597 12.7515 16.3512 12.216 16.3947C11.6933 16.4375 11.0438 16.4375 10.2255 16.4375H7.7745C6.95625 16.4375 6.30675 16.4375 5.784 16.3947C5.2485 16.3512 4.79625 16.2597 4.383 16.0497C3.7126 15.7082 3.16756 15.1631 2.826 14.4927C2.61525 14.0787 2.52375 13.6265 2.48025 13.091C2.4375 12.5682 2.4375 11.9187 2.4375 11.1005V7.8995C2.4375 7.08125 2.4375 6.43175 2.48025 5.909C2.52375 5.3735 2.61525 4.92125 2.82525 4.508C3.16701 3.83749 3.71233 3.29243 4.383 2.951C4.7955 2.74025 5.2485 2.64875 5.784 2.60525C6.30675 2.5625 6.95625 2.5625 7.77525 2.5625H10.2255ZM5.8755 3.7265C5.4105 3.764 5.12175 3.83675 4.893 3.953C4.43447 4.18667 4.06167 4.55947 3.828 5.018C3.71175 5.24675 3.63975 5.5355 3.6015 6.0005C3.5775 6.293 3.5685 6.638 3.564 7.0625H14.4353C14.4355 6.70818 14.4233 6.35395 14.3985 6.0005C14.361 5.5355 14.2883 5.24675 14.172 5.018C13.9383 4.55947 13.5655 4.18667 13.107 3.953C12.8783 3.83675 12.5895 3.76475 12.1245 3.7265C11.652 3.68825 11.049 3.6875 10.2 3.6875H7.8C6.95025 3.6875 6.34725 3.6875 5.8755 3.7265ZM14.6228 7.0625C14.6232 6.70317 14.6106 6.34393 14.5853 5.9855C14.5463 5.50775 14.4713 5.19275 14.3393 4.93325C14.0876 4.43915 13.6859 4.03745 13.1918 3.78575C12.9323 3.65375 12.6173 3.57875 12.1403 3.53975C11.6588 3.5 11.046 3.5 10.2 3.5H7.8C6.954 3.5 6.34125 3.5 5.8605 3.53975C5.38275 3.57875 5.06775 3.65375 4.80825 3.78575C4.31415 4.03745 3.91245 4.43915 3.66075 4.93325C3.52875 5.19275 3.45375 5.50775 3.41475 5.9855C3.39 6.2855 3.381 6.63575 3.37725 7.0625L3.375 7.25H14.625L14.6228 7.0625ZM14.4375 8.1875H3.5625V11.075C3.5625 11.9247 3.5625 12.5277 3.6015 12.9995C3.639 13.4645 3.71175 13.7532 3.828 13.982C4.06167 14.4405 4.43447 14.8133 4.893 15.047C5.12175 15.1632 5.4105 15.2352 5.8755 15.2735C6.348 15.3117 6.95025 15.3125 7.8 15.3125H10.2C11.0498 15.3125 11.6528 15.3125 12.1245 15.2735C12.5895 15.236 12.8783 15.1632 13.107 15.047C13.5655 14.8133 13.9383 14.4405 14.172 13.982C14.2883 13.7532 14.3603 13.4645 14.3985 12.9995C14.4368 12.527 14.4375 11.924 14.4375 11.075V8.1875ZM7.78275 2.75H10.2173C11.0423 2.75 11.6858 2.75 12.201 2.792C12.7245 2.83475 13.1498 2.92325 13.5323 3.1175C14.1675 3.4411 14.6839 3.95753 15.0075 4.59275C15.2025 4.97525 15.2903 5.4005 15.333 5.924C15.375 6.43925 15.375 7.082 15.375 7.90775V11.0922C15.375 11.9172 15.375 12.5607 15.333 13.076C15.2903 13.5995 15.2018 14.0247 15.0075 14.4072C14.6839 15.0425 14.1675 15.5589 13.5323 15.8825C13.1498 16.0775 12.7245 16.1652 12.201 16.208C11.6858 16.25 11.043 16.25 10.2173 16.25H7.78275C6.95775 16.25 6.31425 16.25 5.799 16.208C5.2755 16.1652 4.85025 16.0767 4.46775 15.8825C3.83253 15.5589 3.3161 15.0425 2.9925 14.4072C2.7975 14.0247 2.70975 13.5995 2.667 13.076C2.625 12.5607 2.625 11.918 2.625 11.0922V7.90775C2.625 7.08275 2.625 6.43925 2.667 5.924C2.70975 5.4005 2.79825 4.97525 2.9925 4.59275C3.3161 3.95753 3.83253 3.4411 4.46775 3.1175C4.85025 2.9225 5.2755 2.83475 5.799 2.792C6.315 2.75 6.957 2.75 7.78275 2.75ZM3.375 8V11.075C3.375 11.921 3.375 12.5337 3.41475 13.0145C3.45375 13.4922 3.52875 13.8073 3.66075 14.0667C3.91245 14.5608 4.31415 14.9626 4.80825 15.2142C5.06775 15.3462 5.38275 15.4212 5.8605 15.4602C6.34125 15.5 6.954 15.5 7.8 15.5H10.2C11.046 15.5 11.6588 15.5 12.1395 15.4602C12.6173 15.4212 12.9323 15.3462 13.1918 15.2142C13.6859 14.9626 14.0876 14.5608 14.3393 14.0667C14.4713 13.8073 14.5463 13.4922 14.5853 13.0152C14.625 12.5337 14.625 11.921 14.625 11.075V8H3.375ZM6.375 5.375C6.375 5.27554 6.41451 5.18016 6.48484 5.10983C6.55516 5.03951 6.65054 5 6.75 5H11.25C11.3495 5 11.4448 5.03951 11.5152 5.10983C11.5855 5.18016 11.625 5.27554 11.625 5.375C11.625 5.47446 11.5855 5.56984 11.5152 5.64016C11.4448 5.71049 11.3495 5.75 11.25 5.75H6.75C6.65054 5.75 6.55516 5.71049 6.48484 5.64016C6.41451 5.56984 6.375 5.47446 6.375 5.375ZM6 9.5C5.80109 9.5 5.61032 9.57902 5.46967 9.71967C5.32902 9.86032 5.25 10.0511 5.25 10.25C5.25 10.4489 5.32902 10.6397 5.46967 10.7803C5.61032 10.921 5.80109 11 6 11C6.19891 11 6.38968 10.921 6.53033 10.7803C6.67098 10.6397 6.75 10.4489 6.75 10.25C6.75 10.0511 6.67098 9.86032 6.53033 9.71967C6.38968 9.57902 6.19891 9.5 6 9.5ZM11.25 10.25C11.25 10.0511 11.329 9.86032 11.4697 9.71967C11.6103 9.57902 11.8011 9.5 12 9.5C12.1989 9.5 12.3897 9.57902 12.5303 9.71967C12.671 9.86032 12.75 10.0511 12.75 10.25C12.75 10.4489 12.671 10.6397 12.5303 10.7803C12.3897 10.921 12.1989 11 12 11C11.8011 11 11.6103 10.921 11.4697 10.7803C11.329 10.6397 11.25 10.4489 11.25 10.25ZM8.25 10.25C8.25 10.0511 8.32902 9.86032 8.46967 9.71967C8.61032 9.57902 8.80109 9.5 9 9.5C9.19891 9.5 9.38968 9.57902 9.53033 9.71967C9.67098 9.86032 9.75 10.0511 9.75 10.25C9.75 10.4489 9.67098 10.6397 9.53033 10.7803C9.38968 10.921 9.19891 11 9 11C8.80109 11 8.61032 10.921 8.46967 10.7803C8.32902 10.6397 8.25 10.4489 8.25 10.25ZM5.25 13.25C5.25 13.0511 5.32902 12.8603 5.46967 12.7197C5.61032 12.579 5.80109 12.5 6 12.5C6.19891 12.5 6.38968 12.579 6.53033 12.7197C6.67098 12.8603 6.75 13.0511 6.75 13.25C6.75 13.4489 6.67098 13.6397 6.53033 13.7803C6.38968 13.921 6.19891 14 6 14C5.80109 14 5.61032 13.921 5.46967 13.7803C5.32902 13.6397 5.25 13.4489 5.25 13.25ZM8.25 13.25C8.25 13.0511 8.32902 12.8603 8.46967 12.7197C8.61032 12.579 8.80109 12.5 9 12.5C9.19891 12.5 9.38968 12.579 9.53033 12.7197C9.67098 12.8603 9.75 13.0511 9.75 13.25C9.75 13.4489 9.67098 13.6397 9.53033 13.7803C9.38968 13.921 9.19891 14 9 14C8.80109 14 8.61032 13.921 8.46967 13.7803C8.32902 13.6397 8.25 13.4489 8.25 13.25Z" fill="#1D2D44"/>
</svg>
