<svg width="16" height="16" viewBox="0 0 16 16" fill="none" xmlns="http://www.w3.org/2000/svg">
<path d="M5.9375 4.5625C5.9375 4.47962 5.97042 4.40013 6.02903 4.34153C6.08763 4.28292 6.16712 4.25 6.25 4.25H10C10.0829 4.25 10.1624 4.28292 10.221 4.34153C10.2796 4.40013 10.3125 4.47962 10.3125 4.5625C10.3125 4.64538 10.2796 4.72487 10.221 4.78347C10.1624 4.84208 10.0829 4.875 10 4.875H6.25C6.16712 4.875 6.08763 4.84208 6.02903 4.78347C5.97042 4.72487 5.9375 4.64538 5.9375 4.5625ZM5.625 8C5.45924 8 5.30027 8.06585 5.18306 8.18306C5.06585 8.30027 5 8.45924 5 8.625C5 8.79076 5.06585 8.94973 5.18306 9.06694C5.30027 9.18415 5.45924 9.25 5.625 9.25C5.79076 9.25 5.94973 9.18415 6.06694 9.06694C6.18415 8.94973 6.25 8.79076 6.25 8.625C6.25 8.45924 6.18415 8.30027 6.06694 8.18306C5.94973 8.06585 5.79076 8 5.625 8ZM10.625 8C10.4592 8 10.3003 8.06585 10.1831 8.18306C10.0658 8.30027 10 8.45924 10 8.625C10 8.79076 10.0658 8.94973 10.1831 9.06694C10.3003 9.18415 10.4592 9.25 10.625 9.25C10.7908 9.25 10.9497 9.18415 11.0669 9.06694C11.1842 8.94973 11.25 8.79076 11.25 8.625C11.25 8.45924 11.1842 8.30027 11.0669 8.18306C10.9497 8.06585 10.7908 8 10.625 8ZM7.5 8.625C7.5 8.45924 7.56585 8.30027 7.68306 8.18306C7.80027 8.06585 7.95924 8 8.125 8C8.29076 8 8.44973 8.06585 8.56694 8.18306C8.68415 8.30027 8.75 8.45924 8.75 8.625C8.75 8.79076 8.68415 8.94973 8.56694 9.06694C8.44973 9.18415 8.29076 9.25 8.125 9.25C7.95924 9.25 7.80027 9.18415 7.68306 9.06694C7.56585 8.94973 7.5 8.79076 7.5 8.625ZM5.625 10.5C5.45924 10.5 5.30027 10.5658 5.18306 10.6831C5.06585 10.8003 5 10.9592 5 11.125C5 11.2908 5.06585 11.4497 5.18306 11.5669C5.30027 11.6842 5.45924 11.75 5.625 11.75C5.79076 11.75 5.94973 11.6842 6.06694 11.5669C6.18415 11.4497 6.25 11.2908 6.25 11.125C6.25 10.9592 6.18415 10.8003 6.06694 10.6831C5.94973 10.5658 5.79076 10.5 5.625 10.5ZM7.5 11.125C7.5 10.9592 7.56585 10.8003 7.68306 10.6831C7.80027 10.5658 7.95924 10.5 8.125 10.5C8.29076 10.5 8.44973 10.5658 8.56694 10.6831C8.68415 10.8003 8.75 10.9592 8.75 11.125C8.75 11.2908 8.68415 11.4497 8.56694 11.5669C8.44973 11.6842 8.29076 11.75 8.125 11.75C7.95924 11.75 7.80027 11.6842 7.68306 11.5669C7.56585 11.4497 7.5 11.2908 7.5 11.125Z" fill="#1D2D44"/>
<path d="M9.13937 2.375H7.11062C6.42312 2.375 5.88687 2.375 5.4575 2.41C5.02125 2.44562 4.66687 2.51938 4.34812 2.68125C3.81878 2.95092 3.38842 3.38128 3.11875 3.91062C2.95625 4.22937 2.88312 4.58375 2.8475 5.02C2.8125 5.45 2.8125 5.985 2.8125 6.67312V9.32688C2.8125 10.0144 2.8125 10.5506 2.8475 10.98C2.88312 11.4162 2.95687 11.7706 3.11875 12.0894C3.38842 12.6187 3.81878 13.0491 4.34812 13.3188C4.66687 13.4813 5.02125 13.5544 5.4575 13.59C5.8875 13.625 6.4225 13.625 7.11062 13.625H9.13937C9.82687 13.625 10.3631 13.625 10.7925 13.59C11.2287 13.5544 11.5831 13.4806 11.9019 13.3188C12.4312 13.0491 12.8616 12.6187 13.1312 12.0894C13.2937 11.7706 13.3669 11.4162 13.4025 10.98C13.4375 10.5506 13.4375 10.015 13.4375 9.32688V6.67312C13.4375 5.98562 13.4375 5.44937 13.4025 5.02C13.3669 4.58375 13.2931 4.22937 13.1312 3.91062C12.8616 3.38128 12.4312 2.95092 11.9019 2.68125C11.5831 2.51875 11.2287 2.44562 10.7925 2.41C10.3625 2.375 9.8275 2.375 9.13937 2.375ZM4.63125 3.23813C4.8475 3.12813 5.11 3.06562 5.50812 3.03312C5.90937 3 6.42 3 7.125 3H9.125C9.83 3 10.3406 3 10.7412 3.03312C11.1394 3.06562 11.4019 3.12813 11.6181 3.23813C12.0299 3.44787 12.3646 3.78262 12.5744 4.19437C12.6844 4.41062 12.7469 4.67313 12.7794 5.07125C12.8031 5.35688 12.81 5.6975 12.8119 6.125H3.4375C3.44 5.6975 3.44625 5.35625 3.47 5.07125C3.5025 4.67313 3.565 4.41062 3.675 4.19437C3.88475 3.78262 4.2195 3.44787 4.63125 3.23813ZM3.4375 6.75H12.8125V9.3125C12.8125 10.0175 12.8125 10.5281 12.7794 10.9288C12.7469 11.3269 12.6844 11.5894 12.5744 11.8056C12.3646 12.2174 12.0299 12.5521 11.6181 12.7619C11.4019 12.8719 11.1394 12.9344 10.7419 12.9669C10.3406 13 9.83 13 9.125 13H7.125C6.42 13 5.90937 13 5.50875 12.9669C5.11062 12.9344 4.84812 12.8719 4.63187 12.7619C4.22012 12.5521 3.88537 12.2174 3.67562 11.8056C3.56562 11.5894 3.50312 11.3269 3.47062 10.9294C3.4375 10.5281 3.4375 10.0175 3.4375 9.3125V6.75Z" fill="#1D2D44"/>
<path fill-rule="evenodd" clip-rule="evenodd" d="M5.78125 4.5625C5.78125 4.43818 5.83064 4.31895 5.91854 4.23104C6.00645 4.14314 6.12568 4.09375 6.25 4.09375H10C10.1243 4.09375 10.2435 4.14314 10.3315 4.23104C10.4194 4.31895 10.4688 4.43818 10.4688 4.5625C10.4688 4.68682 10.4194 4.80605 10.3315 4.89396C10.2435 4.98186 10.1243 5.03125 10 5.03125H6.25C6.12568 5.03125 6.00645 4.98186 5.91854 4.89396C5.83064 4.80605 5.78125 4.68682 5.78125 4.5625ZM4.84375 8.625C4.84375 8.4178 4.92606 8.21909 5.07257 8.07257C5.21909 7.92606 5.4178 7.84375 5.625 7.84375C5.8322 7.84375 6.03092 7.92606 6.17743 8.07257C6.32394 8.21909 6.40625 8.4178 6.40625 8.625C6.40625 8.8322 6.32394 9.03091 6.17743 9.17743C6.03092 9.32394 5.8322 9.40625 5.625 9.40625C5.4178 9.40625 5.21909 9.32394 5.07257 9.17743C4.92606 9.03091 4.84375 8.8322 4.84375 8.625ZM9.84375 8.625C9.84375 8.4178 9.92606 8.21909 10.0726 8.07257C10.2191 7.92606 10.4178 7.84375 10.625 7.84375C10.8322 7.84375 11.0309 7.92606 11.1774 8.07257C11.3239 8.21909 11.4063 8.4178 11.4063 8.625C11.4063 8.8322 11.3239 9.03091 11.1774 9.17743C11.0309 9.32394 10.8322 9.40625 10.625 9.40625C10.4178 9.40625 10.2191 9.32394 10.0726 9.17743C9.92606 9.03091 9.84375 8.8322 9.84375 8.625ZM7.34375 8.625C7.34375 8.4178 7.42606 8.21909 7.57257 8.07257C7.71909 7.92606 7.9178 7.84375 8.125 7.84375C8.3322 7.84375 8.53092 7.92606 8.67743 8.07257C8.82394 8.21909 8.90625 8.4178 8.90625 8.625C8.90625 8.8322 8.82394 9.03091 8.67743 9.17743C8.53092 9.32394 8.3322 9.40625 8.125 9.40625C7.9178 9.40625 7.71909 9.32394 7.57257 9.17743C7.42606 9.03091 7.34375 8.8322 7.34375 8.625ZM4.84375 11.125C4.84375 10.9178 4.92606 10.7191 5.07257 10.5726C5.21909 10.4261 5.4178 10.3437 5.625 10.3437C5.8322 10.3437 6.03092 10.4261 6.17743 10.5726C6.32394 10.7191 6.40625 10.9178 6.40625 11.125C6.40625 11.3322 6.32394 11.5309 6.17743 11.6774C6.03092 11.8239 5.8322 11.9062 5.625 11.9062C5.4178 11.9062 5.21909 11.8239 5.07257 11.6774C4.92606 11.5309 4.84375 11.3322 4.84375 11.125ZM7.34375 11.125C7.34375 10.9178 7.42606 10.7191 7.57257 10.5726C7.71909 10.4261 7.9178 10.3437 8.125 10.3437C8.3322 10.3437 8.53092 10.4261 8.67743 10.5726C8.82394 10.7191 8.90625 10.9178 8.90625 11.125C8.90625 11.3322 8.82394 11.5309 8.67743 11.6774C8.53092 11.8239 8.3322 11.9062 8.125 11.9062C7.9178 11.9062 7.71909 11.8239 7.57257 11.6774C7.42606 11.5309 7.34375 11.3322 7.34375 11.125ZM9.14625 2.21875C9.82813 2.21875 10.3694 2.21875 10.805 2.25437C11.2513 2.29062 11.6281 2.36687 11.9731 2.54187C12.5317 2.82678 12.9856 3.2812 13.27 3.84C13.4456 4.18375 13.5219 4.56125 13.5581 5.0075C13.5938 5.44312 13.5938 5.98437 13.5938 6.66625V9.33375C13.5938 10.0156 13.5938 10.5569 13.5581 10.9925C13.5219 11.4387 13.4456 11.8156 13.2706 12.1606C12.9859 12.7191 12.5317 13.173 11.9731 13.4575C11.6281 13.6331 11.2513 13.7094 10.805 13.7456C10.3694 13.7812 9.82813 13.7812 9.14625 13.7812H7.10375C6.42188 13.7812 5.88063 13.7812 5.445 13.7456C4.99875 13.7094 4.62188 13.6331 4.2775 13.4581C3.71884 13.1735 3.26463 12.7193 2.98 12.1606C2.80437 11.8156 2.72812 11.4387 2.69187 10.9925C2.65625 10.5569 2.65625 10.0156 2.65625 9.33375V6.66625C2.65625 5.98437 2.65625 5.44312 2.69187 5.0075C2.72812 4.56125 2.80438 4.18437 2.97938 3.84C3.26417 3.28124 3.7186 2.82703 4.2775 2.5425C4.62125 2.36687 4.99875 2.29062 5.445 2.25437C5.88063 2.21875 6.42188 2.21875 7.10438 2.21875H9.14625ZM5.52125 3.18875C5.13375 3.22 4.89313 3.28062 4.7025 3.3775C4.3204 3.57223 4.00973 3.88289 3.815 4.265C3.71813 4.45562 3.65813 4.69625 3.62625 5.08375C3.60625 5.3275 3.59875 5.615 3.595 5.96875H12.6544C12.6546 5.67348 12.6444 5.3783 12.6238 5.08375C12.5925 4.69625 12.5319 4.45562 12.435 4.265C12.2403 3.88289 11.9296 3.57223 11.5475 3.3775C11.3569 3.28062 11.1163 3.22062 10.7288 3.18875C10.335 3.15687 9.8325 3.15625 9.125 3.15625H7.125C6.41688 3.15625 5.91438 3.15625 5.52125 3.18875ZM12.8106 5.96875C12.811 5.66931 12.8005 5.36995 12.7794 5.07125C12.7469 4.67312 12.6844 4.41062 12.5744 4.19437C12.3646 3.78262 12.0299 3.44787 11.6181 3.23812C11.4019 3.12812 11.1394 3.06562 10.7419 3.03312C10.3406 3 9.83 3 9.125 3H7.125C6.42 3 5.90938 3 5.50875 3.03312C5.11063 3.06562 4.84813 3.12812 4.63188 3.23812C4.22013 3.44787 3.88537 3.78262 3.67563 4.19437C3.56563 4.41062 3.50313 4.67312 3.47063 5.07125C3.45 5.32125 3.4425 5.61312 3.43938 5.96875L3.4375 6.125H12.8125L12.8106 5.96875ZM12.6563 6.90625H3.59375V9.3125C3.59375 10.0206 3.59375 10.5231 3.62625 10.9162C3.6575 11.3037 3.71813 11.5444 3.815 11.735C4.00973 12.1171 4.3204 12.4278 4.7025 12.6225C4.89313 12.7194 5.13375 12.7794 5.52125 12.8112C5.915 12.8431 6.41688 12.8437 7.125 12.8437H9.125C9.83313 12.8437 10.3356 12.8437 10.7288 12.8112C11.1163 12.78 11.3569 12.7194 11.5475 12.6225C11.9296 12.4278 12.2403 12.1171 12.435 11.735C12.5319 11.5444 12.5919 11.3037 12.6238 10.9162C12.6556 10.5225 12.6563 10.02 12.6563 9.3125V6.90625ZM7.11063 2.375H9.13938C9.82688 2.375 10.3631 2.375 10.7925 2.41C11.2288 2.44562 11.5831 2.51937 11.9019 2.68125C12.4312 2.95092 12.8616 3.38128 13.1313 3.91062C13.2938 4.22937 13.3669 4.58375 13.4025 5.02C13.4375 5.44937 13.4375 5.985 13.4375 6.67312V9.32687C13.4375 10.0144 13.4375 10.5506 13.4025 10.98C13.3669 11.4162 13.2931 11.7706 13.1313 12.0894C12.8616 12.6187 12.4312 13.0491 11.9019 13.3187C11.5831 13.4812 11.2288 13.5544 10.7925 13.59C10.3631 13.625 9.8275 13.625 9.13938 13.625H7.11063C6.42313 13.625 5.88688 13.625 5.4575 13.59C5.02125 13.5544 4.66688 13.4806 4.34813 13.3187C3.81878 13.0491 3.38842 12.6187 3.11875 12.0894C2.95625 11.7706 2.88313 11.4162 2.8475 10.98C2.8125 10.5506 2.8125 10.015 2.8125 9.32687V6.67312C2.8125 5.98562 2.8125 5.44937 2.8475 5.02C2.88313 4.58375 2.95688 4.22937 3.11875 3.91062C3.38842 3.38128 3.81878 2.95092 4.34813 2.68125C4.66688 2.51875 5.02125 2.44562 5.4575 2.41C5.8875 2.375 6.4225 2.375 7.11063 2.375ZM3.4375 6.75V9.3125C3.4375 10.0175 3.4375 10.5281 3.47063 10.9287C3.50313 11.3269 3.56563 11.5894 3.67563 11.8056C3.88537 12.2174 4.22013 12.5521 4.63188 12.7619C4.84813 12.8719 5.11063 12.9344 5.50875 12.9669C5.90938 13 6.42 13 7.125 13H9.125C9.83 13 10.3406 13 10.7413 12.9669C11.1394 12.9344 11.4019 12.8719 11.6181 12.7619C12.0299 12.5521 12.3646 12.2174 12.5744 11.8056C12.6844 11.5894 12.7469 11.3269 12.7794 10.9294C12.8125 10.5281 12.8125 10.0175 12.8125 9.3125V6.75H3.4375ZM5.9375 4.5625C5.9375 4.47962 5.97042 4.40013 6.02903 4.34153C6.08763 4.28292 6.16712 4.25 6.25 4.25H10C10.0829 4.25 10.1624 4.28292 10.221 4.34153C10.2796 4.40013 10.3125 4.47962 10.3125 4.5625C10.3125 4.64538 10.2796 4.72487 10.221 4.78347C10.1624 4.84208 10.0829 4.875 10 4.875H6.25C6.16712 4.875 6.08763 4.84208 6.02903 4.78347C5.97042 4.72487 5.9375 4.64538 5.9375 4.5625ZM5.625 8C5.45924 8 5.30027 8.06585 5.18306 8.18306C5.06585 8.30027 5 8.45924 5 8.625C5 8.79076 5.06585 8.94973 5.18306 9.06694C5.30027 9.18415 5.45924 9.25 5.625 9.25C5.79076 9.25 5.94973 9.18415 6.06694 9.06694C6.18415 8.94973 6.25 8.79076 6.25 8.625C6.25 8.45924 6.18415 8.30027 6.06694 8.18306C5.94973 8.06585 5.79076 8 5.625 8ZM10 8.625C10 8.45924 10.0658 8.30027 10.1831 8.18306C10.3003 8.06585 10.4592 8 10.625 8C10.7908 8 10.9497 8.06585 11.0669 8.18306C11.1842 8.30027 11.25 8.45924 11.25 8.625C11.25 8.79076 11.1842 8.94973 11.0669 9.06694C10.9497 9.18415 10.7908 9.25 10.625 9.25C10.4592 9.25 10.3003 9.18415 10.1831 9.06694C10.0658 8.94973 10 8.79076 10 8.625ZM7.5 8.625C7.5 8.45924 7.56585 8.30027 7.68306 8.18306C7.80027 8.06585 7.95924 8 8.125 8C8.29076 8 8.44973 8.06585 8.56694 8.18306C8.68415 8.30027 8.75 8.45924 8.75 8.625C8.75 8.79076 8.68415 8.94973 8.56694 9.06694C8.44973 9.18415 8.29076 9.25 8.125 9.25C7.95924 9.25 7.80027 9.18415 7.68306 9.06694C7.56585 8.94973 7.5 8.79076 7.5 8.625ZM5 11.125C5 10.9592 5.06585 10.8003 5.18306 10.6831C5.30027 10.5658 5.45924 10.5 5.625 10.5C5.79076 10.5 5.94973 10.5658 6.06694 10.6831C6.18415 10.8003 6.25 10.9592 6.25 11.125C6.25 11.2908 6.18415 11.4497 6.06694 11.5669C5.94973 11.6842 5.79076 11.75 5.625 11.75C5.45924 11.75 5.30027 11.6842 5.18306 11.5669C5.06585 11.4497 5 11.2908 5 11.125ZM7.5 11.125C7.5 10.9592 7.56585 10.8003 7.68306 10.6831C7.80027 10.5658 7.95924 10.5 8.125 10.5C8.29076 10.5 8.44973 10.5658 8.56694 10.6831C8.68415 10.8003 8.75 10.9592 8.75 11.125C8.75 11.2908 8.68415 11.4497 8.56694 11.5669C8.44973 11.6842 8.29076 11.75 8.125 11.75C7.95924 11.75 7.80027 11.6842 7.68306 11.5669C7.56585 11.4497 7.5 11.2908 7.5 11.125Z" fill="#1D2D44"/>
</svg>
